<svg width="202" height="205" viewBox="0 0 202 205" fill="none" xmlns="http://www.w3.org/2000/svg">
<g filter="url(#filter0_b)">
<path d="M167.254 22.8341C168.948 21.14 171.638 21.2397 173.282 22.9836C212.544 65.4342 211.548 131.701 170.293 172.956C129.038 214.211 62.7714 215.207 20.3207 175.945C18.5769 174.351 18.5271 171.611 20.1713 169.917L167.254 22.8341Z" fill="white" fill-opacity="0.1"/>
<path d="M21.3329 174.838L21.3392 174.844C63.2006 213.561 128.549 212.578 169.232 171.895C209.914 131.214 210.898 65.8694 172.187 24.0078C171.095 22.8548 169.381 22.8281 168.314 23.8947L21.2477 170.961C21.2454 170.964 21.2431 170.966 21.2409 170.968C20.1786 172.07 20.2307 173.831 21.3329 174.838Z" stroke="white" stroke-opacity="0.15" stroke-width="3"/>
<path d="M4.44608 27.3979C1.99056 17.1774 8.2853 6.9015 18.5058 4.44597C28.7262 1.99045 39.0022 8.2852 41.4577 18.5057C43.9132 28.7262 37.6185 39.0021 27.398 41.4576C17.1775 43.9131 6.9016 37.6184 4.44608 27.3979Z" fill="white" fill-opacity="0.1"/>
<path d="M18.8562 5.90442C9.44118 8.16642 3.64253 17.6325 5.90453 27.0475C8.16653 36.4625 17.6326 42.2611 27.0476 39.9991C36.4626 37.7371 42.2612 28.2711 39.9992 18.8561C37.7372 9.44108 28.2712 3.64242 18.8562 5.90442Z" stroke="white" stroke-opacity="0.15" stroke-width="3"/>
<path d="M80.9072 108.931L36.4636 36.835" stroke="white" stroke-opacity="0.15" stroke-width="3"/>
<path d="M111.45 76.6947L36.4641 36.835" stroke="white" stroke-opacity="0.15" stroke-width="3"/>
<mask id="path-7-inside-1" fill="white">
<path d="M160.527 182.173L167.254 189.149C175.475 197.669 187.433 199.463 194.059 193.135C200.686 186.807 199.39 174.75 191.169 166.18L183.995 158.706"/>
</mask>
<path d="M160.527 182.173L167.254 189.149C175.475 197.669 187.433 199.463 194.059 193.135C200.686 186.807 199.39 174.75 191.169 166.18L183.995 158.706" fill="white" fill-opacity="0.1"/>
<path d="M167.254 189.149L165.095 191.232L165.094 191.231L167.254 189.149ZM191.169 166.18L193.334 164.102L193.334 164.103L191.169 166.18ZM162.687 180.091L169.413 187.067L165.094 191.231L158.368 184.256L162.687 180.091ZM169.412 187.066C177.018 194.948 187.04 195.689 191.987 190.965L196.131 195.305C187.825 203.236 173.932 200.39 165.095 191.232L169.412 187.066ZM191.987 190.965C196.922 186.254 196.613 176.187 189.004 168.257L193.334 164.103C202.168 173.312 204.45 187.361 196.131 195.305L191.987 190.965ZM189.005 168.257L181.83 160.784L186.159 156.628L193.334 164.102L189.005 168.257Z" fill="white" fill-opacity="0.15" mask="url(#path-7-inside-1)"/>
</g>
<defs>
<filter id="filter0_b" x="-16.085" y="-16.085" width="238.085" height="240.748" filterUnits="userSpaceOnUse" color-interpolation-filters="sRGB">
<feFlood flood-opacity="0" result="BackgroundImageFix"/>
<feGaussianBlur in="BackgroundImage" stdDeviation="10"/>
<feComposite in2="SourceAlpha" operator="in" result="effect1_backgroundBlur"/>
<feBlend mode="normal" in="SourceGraphic" in2="effect1_backgroundBlur" result="shape"/>
</filter>
</defs>
</svg>
