<svg width="226" height="246" viewBox="0 0 226 246" fill="none" xmlns="http://www.w3.org/2000/svg">
<g filter="url(#filter0_b)">
<path d="M4.66507 153.914L159.437 244.552C163.874 247.166 169.649 245.647 172.263 241.209L214.634 168.869C217.248 164.431 215.728 158.656 211.29 156.042L56.519 65.404C52.0813 62.7901 46.3063 64.3098 43.6923 68.7475L1.32161 141.088C-1.35315 145.586 0.166595 151.3 4.66507 153.914Z" fill="white" fill-opacity="0.1"/>
<path d="M5.4187 152.617L5.42308 152.62L160.195 243.258L160.198 243.26C163.915 245.449 168.773 244.178 170.97 240.449C170.97 240.448 170.971 240.448 170.971 240.448L213.34 168.111L213.341 168.107C215.531 164.39 214.259 159.532 210.529 157.334L55.761 66.6984L55.7577 66.6965C52.0406 64.507 47.183 65.7782 44.9854 69.5076C44.9852 69.508 44.985 69.5084 44.9847 69.5088L2.61597 141.846L2.61092 141.854C0.366226 145.629 1.63536 150.419 5.4187 152.617Z" stroke="white" stroke-opacity="0.15" stroke-width="3"/>
<path d="M198.342 188.808L31.838 91.3615" stroke="white" stroke-opacity="0.15" stroke-width="3"/>
<path d="M162.78 208.626L142.051 196.468" stroke="white" stroke-opacity="0.15" stroke-width="3"/>
<mask id="path-5-inside-1" fill="white">
<path d="M177.005 233.002L190.622 240.966C195.12 243.58 200.895 242.06 203.509 237.622L224.36 201.939C226.974 197.44 225.454 191.665 221.017 189.051L207.4 181.088"/>
</mask>
<path d="M177.005 233.002L190.622 240.966C195.12 243.58 200.895 242.06 203.509 237.622L224.36 201.939C226.974 197.44 225.454 191.665 221.017 189.051L207.4 181.088" fill="white" fill-opacity="0.1"/>
<path d="M190.622 240.966L189.115 243.56L189.107 243.555L190.622 240.966ZM203.509 237.622L206.099 239.136L206.094 239.145L203.509 237.622ZM224.36 201.939L226.954 203.446L226.95 203.452L224.36 201.939ZM221.017 189.051L222.531 186.461L222.539 186.466L221.017 189.051ZM178.519 230.413L192.136 238.376L189.107 243.555L175.49 235.592L178.519 230.413ZM192.129 238.372C195.206 240.16 199.151 239.11 200.924 236.1L206.094 239.145C202.64 245.01 195.034 246.999 189.115 243.56L192.129 238.372ZM200.919 236.109L221.77 200.425L226.95 203.452L206.099 239.136L200.919 236.109ZM221.766 200.431C223.555 197.354 222.505 193.409 219.494 191.636L222.539 186.466C228.404 189.921 230.394 197.526 226.954 203.446L221.766 200.431ZM219.502 191.641L205.885 183.677L208.914 178.498L222.531 186.461L219.502 191.641Z" fill="white" fill-opacity="0.15" mask="url(#path-5-inside-1)"/>
<path d="M222.05 2H8.67718" stroke="white" stroke-opacity="0.15" stroke-width="3"/>
<path d="M109.771 2V73.4891" stroke="white" stroke-opacity="0.15" stroke-width="3"/>
<mask id="path-9-inside-2" fill="white">
<path d="M123.813 104.857V87.9571C123.813 80.9054 118.099 75.252 111.108 75.252C104.057 75.252 98.4032 80.9662 98.4032 87.9571"/>
</mask>
<path d="M123.813 104.857V87.9571C123.813 80.9054 118.099 75.252 111.108 75.252C104.057 75.252 98.4032 80.9662 98.4032 87.9571" fill="white" fill-opacity="0.1"/>
<path d="M120.813 104.857V87.9571H126.813V104.857H120.813ZM120.813 87.9571C120.813 82.5716 116.452 78.252 111.108 78.252V72.252C119.747 72.252 126.813 79.2392 126.813 87.9571H120.813ZM111.108 78.252C105.723 78.252 101.403 82.6137 101.403 87.9571H95.4032C95.4032 79.3187 102.391 72.252 111.108 72.252V78.252Z" fill="white" fill-opacity="0.15" mask="url(#path-9-inside-2)"/>
</g>
<defs>
<filter id="filter0_b" x="-20" y="-19.5" width="265.641" height="285.333" filterUnits="userSpaceOnUse" color-interpolation-filters="sRGB">
<feFlood flood-opacity="0" result="BackgroundImageFix"/>
<feGaussianBlur in="BackgroundImage" stdDeviation="10"/>
<feComposite in2="SourceAlpha" operator="in" result="effect1_backgroundBlur"/>
<feBlend mode="normal" in="SourceGraphic" in2="effect1_backgroundBlur" result="shape"/>
</filter>
</defs>
</svg>
