<svg width="197" height="171" viewBox="0 0 197 171" fill="none" xmlns="http://www.w3.org/2000/svg">
<g filter="url(#filter0_b)">
<mask id="path-1-inside-1" fill="white">
<path d="M24.4084 79.2543C24.4084 68.8005 52.4148 54.2138 98.0224 54.2138C143.63 54.2138 171.637 68.8005 171.637 79.2543V96.4179C171.637 116.11 163.954 134.586 150.048 148.492C136.142 162.398 117.666 170.081 97.9738 170.081C57.3742 170.081 24.3597 137.066 24.3597 96.4665L24.3111 94.3758C24.457 93.3547 24.4084 79.2543 24.4084 79.2543ZM24.7487 102.739C13.4197 97.1472 6.85574 90.4374 6.85574 84.1165L0 32.0907C0.583467 17.1637 43.1765 0 98.0711 0C152.917 0 195.559 17.1637 196.093 32.0907L189.238 84.1165C189.238 90.4374 182.674 97.1472 171.345 102.739"/>
</mask>
<path d="M24.4084 79.2543C24.4084 68.8005 52.4148 54.2138 98.0224 54.2138C143.63 54.2138 171.637 68.8005 171.637 79.2543V96.4179C171.637 116.11 163.954 134.586 150.048 148.492C136.142 162.398 117.666 170.081 97.9738 170.081C57.3742 170.081 24.3597 137.066 24.3597 96.4665L24.3111 94.3758C24.457 93.3547 24.4084 79.2543 24.4084 79.2543ZM24.7487 102.739C13.4197 97.1472 6.85574 90.4374 6.85574 84.1165L0 32.0907C0.583467 17.1637 43.1765 0 98.0711 0C152.917 0 195.559 17.1637 196.093 32.0907L189.238 84.1165C189.238 90.4374 182.674 97.1472 171.345 102.739" fill="white" fill-opacity="0.1"/>
<path d="M24.4084 79.2543H21.4083L21.4084 79.2646L24.4084 79.2543ZM24.3597 96.4665H27.3597V96.4316L27.3589 96.3968L24.3597 96.4665ZM24.3111 94.3758L21.3413 93.9515L21.3062 94.1973L21.3119 94.4455L24.3111 94.3758ZM6.85574 84.1165H9.85574V83.9197L9.83002 83.7245L6.85574 84.1165ZM0 32.0907L-2.99771 31.9735L-3.0077 32.2291L-2.97429 32.4826L0 32.0907ZM196.093 32.0907L199.068 32.4826L199.101 32.2339L199.092 31.9833L196.093 32.0907ZM189.238 84.1165L186.263 83.7245L186.238 83.9197V84.1165H189.238ZM27.4084 79.2543C27.4084 77.9645 28.3379 75.8541 31.44 73.2173C34.4434 70.6643 39.0448 68.01 45.2024 65.6089C57.4921 60.8165 75.5141 57.2138 98.0224 57.2138V51.2138C74.9231 51.2138 56.1381 54.9045 43.0226 60.0188C36.4777 62.5711 31.227 65.5236 27.554 68.6457C23.9796 71.684 21.4084 75.3171 21.4084 79.2543H27.4084ZM98.0224 57.2138C120.531 57.2138 138.553 60.8165 150.842 65.6089C157 68.01 161.601 70.6643 164.605 73.2173C167.707 75.8541 168.637 77.9645 168.637 79.2543H174.637C174.637 75.3171 172.065 71.684 168.491 68.6457C164.818 65.5236 159.567 62.5711 153.022 60.0188C139.907 54.9045 121.122 51.2138 98.0224 51.2138V57.2138ZM168.637 79.2543V96.4179H174.637V79.2543H168.637ZM168.637 96.4179C168.637 115.312 161.272 133.026 147.927 146.371L152.17 150.614C166.636 136.147 174.637 116.908 174.637 96.4179H168.637ZM147.927 146.371C134.582 159.716 116.868 167.081 97.9738 167.081V173.081C118.464 173.081 137.703 165.08 152.17 150.614L147.927 146.371ZM97.9738 167.081C59.0311 167.081 27.3597 135.409 27.3597 96.4665H21.3597C21.3597 138.723 55.7174 173.081 97.9738 173.081V167.081ZM27.3589 96.3968L27.3103 94.306L21.3119 94.4455L21.3606 96.5363L27.3589 96.3968ZM27.281 94.8C27.3296 94.4594 27.3454 93.9213 27.3562 93.5112C27.3694 93.0054 27.3796 92.3533 27.3877 91.6149C27.4038 90.1355 27.4114 88.2663 27.4144 86.4371C27.4175 84.6062 27.416 82.8081 27.4137 81.4683C27.4125 80.7982 27.4112 80.2424 27.4102 79.854C27.4096 79.6598 27.4092 79.5075 27.4089 79.4036C27.4087 79.3516 27.4086 79.3118 27.4085 79.2849C27.4084 79.2715 27.4084 79.2613 27.4084 79.2544C27.4084 79.251 27.4084 79.2484 27.4084 79.2466C27.4084 79.2457 27.4084 79.2451 27.4083 79.2446C27.4083 79.2444 27.4083 79.2442 27.4083 79.2441C27.4083 79.244 27.4083 79.2439 24.4084 79.2543C21.4084 79.2646 21.4084 79.2646 21.4084 79.2647C21.4084 79.2648 21.4084 79.265 21.4084 79.2652C21.4084 79.2656 21.4084 79.2662 21.4084 79.267C21.4084 79.2687 21.4084 79.2712 21.4084 79.2746C21.4084 79.2813 21.4085 79.2913 21.4085 79.3046C21.4086 79.3311 21.4087 79.3706 21.4089 79.4221C21.4092 79.5253 21.4097 79.6769 21.4102 79.8702C21.4112 80.2569 21.4125 80.8107 21.4137 81.4785C21.416 82.8144 21.4175 84.6053 21.4144 86.4271C21.4114 88.2507 21.4038 90.0981 21.388 91.5496C21.3801 92.2768 21.3702 92.8937 21.3582 93.3545C21.3437 93.911 21.3291 94.0369 21.3413 93.9515L27.281 94.8ZM26.0765 100.049C20.6042 97.3477 16.4527 94.4561 13.7121 91.6174C10.951 88.7575 9.85574 86.2077 9.85574 84.1165H3.85574C3.85574 88.3462 6.04251 92.3118 9.39559 95.7849C12.7693 99.2793 17.5643 102.538 23.421 105.429L26.0765 100.049ZM9.83002 83.7245L2.97429 31.6987L-2.97429 32.4826L3.88145 84.5084L9.83002 83.7245ZM2.99771 32.2079C3.08927 29.8654 4.92897 26.7283 9.65287 23.1772C14.2532 19.7189 21.0371 16.2986 29.6603 13.2791C46.8786 7.25008 70.9088 3 98.0711 3V-3C70.3388 -3 45.6252 1.33174 27.6774 7.61627C18.7176 10.7536 11.313 14.423 6.04755 18.3812C0.905696 22.2465 -2.79754 26.8524 -2.99771 31.9735L2.99771 32.2079ZM98.0711 3C125.209 3 149.239 7.25003 166.457 13.2791C175.081 16.2987 181.864 19.7189 186.461 23.1766C191.182 26.7278 193.012 29.8614 193.095 32.1981L199.092 31.9833C198.908 26.8564 195.207 22.2469 190.068 18.3817C184.805 14.423 177.4 10.7535 168.44 7.61627C150.493 1.33179 125.779 -3 98.0711 -3V3ZM193.119 31.6987L186.263 83.7245L192.212 84.5084L199.068 32.4826L193.119 31.6987ZM186.238 84.1165C186.238 86.2077 185.143 88.7574 182.381 91.6174C179.641 94.4561 175.489 97.3477 170.017 100.049L172.673 105.429C178.529 102.538 183.324 99.2793 186.698 95.7849C190.051 92.3118 192.238 88.3462 192.238 84.1165H186.238Z" fill="white" fill-opacity="0.15" mask="url(#path-1-inside-1)"/>
<path d="M98.0709 152.139C118.694 152.139 135.413 135.421 135.413 114.797C135.413 94.1739 118.694 77.4553 98.0709 77.4553C77.4475 77.4553 60.729 94.1739 60.729 114.797C60.729 135.421 77.4475 152.139 98.0709 152.139Z" fill="white" fill-opacity="0.1"/>
<path d="M133.913 114.797C133.913 134.592 117.866 150.639 98.0709 150.639C78.276 150.639 62.229 134.592 62.229 114.797C62.229 95.0023 78.276 78.9553 98.0709 78.9553C117.866 78.9553 133.913 95.0023 133.913 114.797Z" stroke="white" stroke-opacity="0.15" stroke-width="3"/>
<path d="M98.0711 135.364C109.43 135.364 118.638 126.156 118.638 114.797C118.638 103.438 109.43 94.2297 98.0711 94.2297C86.7122 94.2297 77.5039 103.438 77.5039 114.797C77.5039 126.156 86.7122 135.364 98.0711 135.364Z" fill="white" fill-opacity="0.1"/>
<path d="M117.138 114.797C117.138 125.327 108.602 133.864 98.0711 133.864C87.5406 133.864 79.0039 125.327 79.0039 114.797C79.0039 104.266 87.5406 95.7297 98.0711 95.7297C108.602 95.7297 117.138 104.266 117.138 114.797Z" stroke="white" stroke-opacity="0.15" stroke-width="3"/>
</g>
<defs>
<filter id="filter0_b" x="-20" y="-20" width="236.093" height="210.081" filterUnits="userSpaceOnUse" color-interpolation-filters="sRGB">
<feFlood flood-opacity="0" result="BackgroundImageFix"/>
<feGaussianBlur in="BackgroundImage" stdDeviation="10"/>
<feComposite in2="SourceAlpha" operator="in" result="effect1_backgroundBlur"/>
<feBlend mode="normal" in="SourceGraphic" in2="effect1_backgroundBlur" result="shape"/>
</filter>
</defs>
</svg>
