<svg width="48" height="375" viewBox="0 0 48 375" fill="none" xmlns="http://www.w3.org/2000/svg">
<g opacity="0.15">
<path d="M24.6211 15.1152V136.75L37.1993 146.906" stroke="white" stroke-width="2" stroke-miterlimit="10"/>
<path d="M28.7296 17.0332C29.6723 14.7604 28.5916 12.1546 26.3156 11.2131C24.0397 10.2717 21.4305 11.351 20.4877 13.6239C19.545 15.8967 20.6258 18.5025 22.9017 19.444C25.1776 20.3854 27.7868 19.3061 28.7296 17.0332Z" fill="white"/>
<path d="M26.227 369.595V175.473L4.46045 158.279V4.24649" stroke="white" stroke-width="2" stroke-miterlimit="10"/>
<path d="M8.95044 4.45439C8.95044 1.98963 6.95815 0 4.49009 0C2.02203 0 0 1.98963 0 4.45439C0 6.91915 1.99229 8.90877 4.46035 8.90877C6.92842 8.90877 8.95044 6.91915 8.95044 4.45439Z" fill="white"/>
<path d="M42.7598 375V47.3946" stroke="white" stroke-width="2" stroke-miterlimit="10"/>
<path d="M47.2501 47.6025C47.2501 45.1378 45.2578 43.1481 42.7897 43.1481C40.3216 43.1481 38.3293 45.1378 38.3293 47.6025C38.3293 50.0673 40.3216 52.0569 42.7897 52.0569C45.228 52.0866 47.2501 50.0673 47.2501 47.6025Z" fill="white"/>
</g>
</svg>
