<svg width="52" height="403" viewBox="0 0 52 403" fill="none" xmlns="http://www.w3.org/2000/svg">
<g opacity="0.15">
<path d="M47.4424 3.72095L21.7197 27.929V210.76L38.3548 223.468V394.413" stroke="white" stroke-width="2" stroke-miterlimit="10"/>
<path d="M44.6442 1.05098C46.1845 -0.412285 48.6489 -0.335271 50.1122 1.20501C51.5755 2.74529 51.4985 5.20974 49.9582 6.67301C48.4179 8.13628 45.9535 8.05926 44.4902 6.51898C43.0269 4.95303 43.1039 2.51425 44.6442 1.05098Z" fill="white"/>
<path d="M4.28906 248.574V402.141" stroke="white" stroke-width="2" stroke-miterlimit="10"/>
<path d="M4.76293 252.573C6.87367 252.313 8.37408 250.391 8.1142 248.28C7.85432 246.169 5.93256 244.669 3.82182 244.929C1.71109 245.189 0.210675 247.111 0.470556 249.221C0.730437 251.332 2.6522 252.832 4.76293 252.573Z" fill="white"/>
</g>
</svg>
