<svg width="87" height="406" viewBox="0 0 87 406" fill="none" xmlns="http://www.w3.org/2000/svg">
<g opacity="0.15">
<path d="M34.6069 0V370.065" stroke="white" stroke-width="2" stroke-miterlimit="10"/>
<path d="M29.4385 369.791C29.4385 372.632 31.7319 374.925 34.573 374.925C37.414 374.925 39.7074 372.632 39.7074 369.791C39.7074 366.95 37.414 364.657 34.573 364.657C31.7319 364.657 29.4385 366.95 29.4385 369.791Z" fill="white"/>
<path d="M54.2212 4.31223V246.721L80.9889 276.428V401.106" stroke="white" stroke-width="2" stroke-miterlimit="10"/>
<path d="M75.8545 400.866C75.8545 403.707 78.1479 406 80.989 406C83.83 406 86.1234 403.707 86.1234 400.866C86.1234 398.026 83.83 395.733 80.989 395.733C78.1479 395.733 75.8545 397.992 75.8545 400.866Z" fill="white"/>
<path d="M56.7886 269.48V379.237" stroke="white" stroke-width="2" stroke-miterlimit="10"/>
<path d="M58.7625 383.753C61.3824 382.667 62.6265 379.664 61.5413 377.045C60.4561 374.425 57.4525 373.182 54.8326 374.267C52.2127 375.352 50.9686 378.355 52.0538 380.974C53.1391 383.594 56.1426 384.838 58.7625 383.753Z" fill="white"/>
<path d="M7.25781 350.557V220.814L19.8544 210.238" stroke="white" stroke-width="2" stroke-miterlimit="10"/>
<path d="M10.8918 353.954C12.8969 351.949 12.8969 348.698 10.8918 346.694C8.88664 344.689 5.63571 344.689 3.63059 346.694C1.62547 348.698 1.62547 351.949 3.63059 353.954C5.63571 355.958 8.88664 355.958 10.8918 353.954Z" fill="white"/>
</g>
</svg>
