<svg width="36" height="397" viewBox="0 0 36 397" fill="none" xmlns="http://www.w3.org/2000/svg">
<g opacity="0.15">
<path d="M4.18262 81.9547V231.717" stroke="white" stroke-width="2" stroke-miterlimit="10"/>
<path d="M0 231.524C0 233.817 1.86829 235.669 4.18275 235.669C6.4972 235.669 8.3655 233.817 8.3655 231.524C8.3655 229.23 6.4972 227.379 4.18275 227.379C1.86829 227.379 0 229.23 0 231.524Z" fill="white"/>
<path d="M34.9679 59.3247V291.07L21.2485 303.393V391.786" stroke="white" stroke-width="2" stroke-miterlimit="10"/>
<path d="M25.1118 393.171C25.9959 391.056 24.9824 388.631 22.8481 387.755C20.7139 386.879 18.267 387.884 17.383 389.998C16.4989 392.113 17.5124 394.538 19.6467 395.414C21.7809 396.29 24.2278 395.286 25.1118 393.171Z" fill="white"/>
<path d="M23.7856 257.249V0" stroke="white" stroke-width="2" stroke-miterlimit="10"/>
<path d="M27.9964 257.718C27.9964 260.012 26.1281 261.863 23.8136 261.863C21.4992 261.863 19.6309 260.012 19.6309 257.718C19.6309 255.425 21.4992 253.574 23.8136 253.574C26.1281 253.574 27.9964 255.425 27.9964 257.718Z" fill="white"/>
</g>
</svg>
