<svg width="43" height="377" viewBox="0 0 43 377" fill="none" xmlns="http://www.w3.org/2000/svg">
<g opacity="0.15">
<path d="M30.7495 110.918V30.9427" stroke="white" stroke-width="2" stroke-miterlimit="10"/>
<path d="M29.6645 34.7432C27.6873 34.1417 26.5698 32.0436 27.1685 30.057C27.7672 28.0705 29.8553 26.9477 31.8325 27.5492C33.8098 28.1507 34.9273 30.2487 34.3286 32.2353C33.7299 34.2219 31.6417 35.3447 29.6645 34.7432Z" fill="white"/>
<path d="M41.4727 350.492V128.556L21.972 106.809V15.5339" stroke="white" stroke-width="2" stroke-miterlimit="10"/>
<path d="M18.2064 15.7094C18.2064 13.6298 19.8772 11.9512 21.947 11.9512C24.0167 11.9512 25.6875 13.6298 25.6875 15.7094C25.6875 17.7889 24.0167 19.4676 21.947 19.4676C19.8772 19.4676 18.2064 17.7889 18.2064 15.7094Z" fill="white"/>
<path d="M28.5305 328.995V148.725" stroke="white" stroke-width="2" stroke-miterlimit="10"/>
<path d="M27.9288 152.614C25.8897 152.281 24.5048 150.351 24.8358 148.302C25.1667 146.253 27.0881 144.862 29.1273 145.194C31.1665 145.527 32.5513 147.457 32.2203 149.506C31.8894 151.555 29.968 152.946 27.9288 152.614Z" fill="white"/>
<path d="M1.0001 323.207V94.9077L13.269 83.7333V3.58289" stroke="white" stroke-width="2" stroke-miterlimit="10"/>
<path d="M9.50356 3.75822C9.50356 1.67867 11.1743 0 13.2441 0C15.3138 0 16.9846 1.67867 16.9846 3.75822C16.9846 5.83777 15.3138 7.51645 13.2441 7.51645C11.1743 7.51645 9.50356 5.83777 9.50356 3.75822Z" fill="white"/>
<path d="M11 124.948V377" stroke="white" stroke-width="2" stroke-miterlimit="10"/>
<path d="M7.29381 125.752C6.96286 123.704 8.34766 121.773 10.3868 121.441C12.426 121.108 14.3474 122.499 14.6784 124.548C15.0093 126.597 13.6245 128.528 11.5853 128.86C9.54613 129.193 7.62475 127.801 7.29381 125.752Z" fill="white"/>
</g>
</svg>
