<svg width="93" height="403" viewBox="0 0 93 403" fill="none" xmlns="http://www.w3.org/2000/svg">
<g opacity="0.15">
<path d="M88.3853 3.72089L62.6626 27.929V210.76L79.2976 223.468V394.413" stroke="white" stroke-width="2" stroke-miterlimit="10"/>
<path d="M85.5871 1.05098C87.1274 -0.412285 89.5918 -0.335271 91.0551 1.20501C92.5184 2.74529 92.4413 5.20974 90.9011 6.67301C89.3608 8.13628 86.8963 8.05926 85.4331 6.51898C83.9698 4.95303 84.0468 2.51425 85.5871 1.05098Z" fill="white"/>
<path d="M45.2319 248.574V402.14" stroke="white" stroke-width="2" stroke-miterlimit="10"/>
<path d="M45.7058 252.572C47.8165 252.313 49.317 250.391 49.0571 248.28C48.7972 246.169 46.8754 244.669 44.7647 244.929C42.654 245.189 41.1535 247.11 41.4134 249.221C41.6733 251.332 43.5951 252.832 45.7058 252.572Z" fill="white"/>
<path d="M1 389.202V337.833L26.4146 310.853V257.046" stroke="white" stroke-width="2" stroke-miterlimit="10"/>
<path d="M26.4147 261.076C28.5414 261.076 30.2654 259.352 30.2654 257.225C30.2654 255.099 28.5414 253.375 26.4147 253.375C24.288 253.375 22.564 255.099 22.564 257.225C22.564 259.352 24.288 261.076 26.4147 261.076Z" fill="white"/>
</g>
</svg>
