<svg width="37" height="404" viewBox="0 0 37 404" fill="none" xmlns="http://www.w3.org/2000/svg">
<g opacity="0.15">
<path d="M4.34619 399.858V85.4088" stroke="white" stroke-width="2" stroke-miterlimit="10"/>
<path d="M8.7509 399.624C8.7509 402.046 6.79653 404 4.37545 404C1.95437 404 0 402.046 0 399.624C0 397.203 1.95437 395.249 4.37545 395.249C6.79653 395.249 8.7509 397.203 8.7509 399.624Z" fill="white"/>
<path d="M35.354 76.512V230.09L18.1147 245.463" stroke="white" stroke-width="2" stroke-miterlimit="10"/>
<path d="M15.3434 242.05C13.5349 243.654 13.3891 246.425 14.9934 248.234C16.5977 250.042 19.3688 250.188 21.1774 248.584C22.9859 246.98 23.1317 244.208 21.5274 242.4C19.9231 240.591 17.1519 240.416 15.3434 242.05Z" fill="white"/>
<path d="M20.4478 208.942V0" stroke="white" stroke-width="2" stroke-miterlimit="10"/>
<path d="M24.8525 210.897C24.8525 213.318 22.8981 215.272 20.477 215.272C18.0559 215.272 16.1016 213.318 16.1016 210.897C16.1016 208.476 18.0559 206.521 20.477 206.521C22.8689 206.521 24.8525 208.476 24.8525 210.897Z" fill="white"/>
</g>
</svg>
