<svg width="60" height="393" viewBox="0 0 60 393" fill="none" xmlns="http://www.w3.org/2000/svg">
<g opacity="0.15">
<path d="M34.814 386.847V192.589L55.0221 170.461V76.7061" stroke="white" stroke-width="2" stroke-miterlimit="10"/>
<path d="M55.7198 81.2262C58.0839 80.8418 59.6893 78.6102 59.3057 76.2418C58.922 73.8733 56.6945 72.2649 54.3304 72.6493C51.9663 73.0337 50.3608 75.2653 50.7445 77.6337C51.1282 80.0022 53.3557 81.6106 55.7198 81.2262Z" fill="white"/>
<path d="M34.8141 5.89038V150.36L10.5874 176.456V392.639" stroke="white" stroke-width="2" stroke-miterlimit="10"/>
<path d="M37.0913 9.79913C39.1287 8.53776 39.7597 5.86052 38.5006 3.81934C37.2416 1.77816 34.5693 1.146 32.5318 2.40737C30.4944 3.66874 29.8634 6.34599 31.1225 8.38716C32.3815 10.4283 35.0538 11.0605 37.0913 9.79913Z" fill="white"/>
<path d="M14.4902 37.5474V141.758L1.71191 155.342" stroke="white" stroke-width="2" stroke-miterlimit="10"/>
<path d="M10.1538 37.7502C10.1538 35.3462 12.0908 33.4056 14.4903 33.4056C16.8899 33.4056 18.8268 35.3462 18.8268 37.7502C18.8268 40.1541 16.8899 42.0947 14.4903 42.0947C12.0908 42.0947 10.1538 40.1831 10.1538 37.7502Z" fill="white"/>
</g>
</svg>
