<svg width="203" height="202" viewBox="0 0 203 202" fill="none" xmlns="http://www.w3.org/2000/svg">
<g filter="url(#filter0_b)">
<path d="M121.317 201.326C119.693 201.326 118.363 199.997 118.363 198.372V126.832C118.363 125.207 119.693 123.878 121.317 123.878C122.942 123.878 124.272 125.207 124.272 126.832V198.372C124.272 199.997 122.942 201.326 121.317 201.326ZM81.6825 201.326C80.0577 201.326 78.7283 199.997 78.7283 198.372V101.525C78.7283 88.9694 88.9694 78.7283 101.525 78.7283C114.08 78.7283 124.321 88.9694 124.321 101.525C124.321 103.149 122.992 104.479 121.367 104.479C119.742 104.479 118.413 103.149 118.413 101.525C118.413 92.219 110.83 84.6367 101.525 84.6367C92.219 84.6367 84.6367 92.219 84.6367 101.525V198.372C84.6367 199.997 83.3073 201.326 81.6825 201.326ZM147.56 193.202C145.935 193.202 144.606 191.873 144.606 190.248V101.525C144.606 77.7436 125.256 58.3939 101.475 58.3939C77.6944 58.3939 58.3447 77.7436 58.3447 101.525C58.3447 103.149 57.0153 104.479 55.3905 104.479C53.7657 104.479 52.4363 103.149 52.4363 101.525C52.4363 74.4941 74.4448 52.4856 101.475 52.4856C128.506 52.4856 150.514 74.4941 150.514 101.525V190.297C150.514 191.873 149.185 193.202 147.56 193.202ZM55.4397 193.202C53.8149 193.202 52.4856 191.873 52.4856 190.248V127.472C52.4856 125.847 53.8149 124.518 55.4397 124.518C57.0645 124.518 58.3939 125.847 58.3939 127.472V190.248C58.3939 191.873 57.0645 193.202 55.4397 193.202ZM173.803 176.56C172.178 176.56 170.849 175.231 170.849 173.606V101.525C170.849 99.8998 172.178 98.5705 173.803 98.5705C175.428 98.5705 176.757 99.8998 176.757 101.525V173.655C176.757 175.231 175.428 176.56 173.803 176.56ZM29.1969 176.56C27.5722 176.56 26.2428 175.231 26.2428 173.606V101.525C26.2428 60.0187 60.0187 26.2428 101.525 26.2428C130.919 26.2428 157.851 43.5739 170.061 70.4075C170.75 71.8846 170.061 73.657 168.584 74.2971C167.107 74.9864 165.334 74.2971 164.694 72.82C153.419 48.1036 128.654 32.1511 101.525 32.1511C63.2683 32.1511 32.1511 63.2683 32.1511 101.525V173.655C32.1511 175.231 30.8217 176.56 29.1969 176.56ZM200.046 157.211C198.421 157.211 197.092 155.881 197.092 154.256V101.525C197.092 48.7929 154.207 5.90832 101.525 5.90832C48.7929 5.90832 5.90832 48.7929 5.90832 101.525V154.256C5.90832 155.881 4.57895 157.211 2.95416 157.211C1.32937 157.211 0 155.881 0 154.256V101.525C0 45.5433 45.5433 0 101.525 0C157.506 0 203 45.5433 203 101.525V154.256C203 155.881 201.671 157.211 200.046 157.211Z" fill="white" fill-opacity="0.1"/>
<path d="M169.151 70.8217L169.155 70.8304C169.604 71.7923 169.152 72.9613 168.186 73.3796L168.174 73.3851L168.161 73.3909C167.199 73.8398 166.03 73.3877 165.612 72.4224L165.608 72.4137L165.604 72.405C154.167 47.3332 129.046 31.1511 101.525 31.1511C62.716 31.1511 31.1511 62.716 31.1511 101.525V173.655C31.1511 174.668 30.2804 175.56 29.1969 175.56C28.1244 175.56 27.2428 174.679 27.2428 173.606V101.525C27.2428 60.571 60.571 27.2428 101.525 27.2428C130.526 27.2428 157.103 44.3443 169.151 70.8217ZM121.317 200.326C120.245 200.326 119.363 199.444 119.363 198.372V126.832C119.363 125.759 120.245 124.878 121.317 124.878C122.39 124.878 123.272 125.759 123.272 126.832V198.372C123.272 199.444 122.39 200.326 121.317 200.326ZM81.6825 200.326C80.61 200.326 79.7283 199.444 79.7283 198.372V101.525C79.7283 89.5217 89.5217 79.7283 101.525 79.7283C113.528 79.7283 123.321 89.5217 123.321 101.525C123.321 102.597 122.439 103.479 121.367 103.479C120.294 103.479 119.413 102.597 119.413 101.525C119.413 91.6667 111.383 83.6367 101.525 83.6367C91.6667 83.6367 83.6367 91.6667 83.6367 101.525V198.372C83.6367 199.444 82.755 200.326 81.6825 200.326ZM147.56 192.202C146.488 192.202 145.606 191.32 145.606 190.248V101.525C145.606 77.1913 125.809 57.3939 101.475 57.3939C77.1421 57.3939 57.3447 77.1913 57.3447 101.525C57.3447 102.597 56.463 103.479 55.3905 103.479C54.318 103.479 53.4363 102.597 53.4363 101.525C53.4363 75.0463 74.9971 53.4856 101.475 53.4856C127.954 53.4856 149.514 75.0463 149.514 101.525V190.297C149.514 191.31 148.644 192.202 147.56 192.202ZM55.4397 192.202C54.3672 192.202 53.4856 191.32 53.4856 190.248V127.472C53.4856 126.399 54.3672 125.518 55.4397 125.518C56.5122 125.518 57.3939 126.399 57.3939 127.472V190.248C57.3939 191.32 56.5122 192.202 55.4397 192.202ZM173.803 175.56C172.731 175.56 171.849 174.679 171.849 173.606V101.525C171.849 100.452 172.731 99.5705 173.803 99.5705C174.876 99.5705 175.757 100.452 175.757 101.525V173.655C175.757 174.668 174.886 175.56 173.803 175.56ZM200.046 156.211C198.973 156.211 198.092 155.329 198.092 154.256V101.525C198.092 48.2409 154.76 4.90832 101.525 4.90832C48.2406 4.90832 4.90832 48.2406 4.90832 101.525V154.256C4.90832 155.329 4.02666 156.211 2.95416 156.211C1.88166 156.211 1 155.329 1 154.256V101.525C1 46.0956 46.0956 1 101.525 1C156.953 1 202 46.0949 202 101.525V154.256C202 155.329 201.118 156.211 200.046 156.211Z" stroke="white" stroke-opacity="0.15" stroke-width="2"/>
</g>
<defs>
<filter id="filter0_b" x="-20" y="-20" width="243" height="241.326" filterUnits="userSpaceOnUse" color-interpolation-filters="sRGB">
<feFlood flood-opacity="0" result="BackgroundImageFix"/>
<feGaussianBlur in="BackgroundImage" stdDeviation="10"/>
<feComposite in2="SourceAlpha" operator="in" result="effect1_backgroundBlur"/>
<feBlend mode="normal" in="SourceGraphic" in2="effect1_backgroundBlur" result="shape"/>
</filter>
</defs>
</svg>
