<svg width="195" height="196" viewBox="0 0 195 196" fill="none" xmlns="http://www.w3.org/2000/svg">
<g filter="url(#filter0_b)">
<path d="M18.7423 37.4846C29.0896 37.4846 37.4846 29.0896 37.4846 18.7423C37.4846 8.39498 29.0896 0 18.7423 0C8.39498 0 0 8.39498 0 18.7423C0 29.0896 8.39498 37.4846 18.7423 37.4846Z" fill="white" fill-opacity="0.1"/>
<path d="M35.9846 18.7423C35.9846 28.2612 28.2612 35.9846 18.7423 35.9846C9.22341 35.9846 1.5 28.2612 1.5 18.7423C1.5 9.22341 9.22341 1.5 18.7423 1.5C28.2612 1.5 35.9846 9.22341 35.9846 18.7423Z" stroke="white" stroke-opacity="0.15" stroke-width="3"/>
<path d="M96.7374 37.4846C107.085 37.4846 115.48 29.0896 115.48 18.7423C115.48 8.39498 107.085 0 96.7374 0C86.3901 0 77.9951 8.39498 77.9951 18.7423C77.9951 29.0896 86.3901 37.4846 96.7374 37.4846Z" fill="white" fill-opacity="0.1"/>
<path d="M113.98 18.7423C113.98 28.2612 106.256 35.9846 96.7374 35.9846C87.2185 35.9846 79.4951 28.2612 79.4951 18.7423C79.4951 9.22341 87.2185 1.5 96.7374 1.5C106.256 1.5 113.98 9.22341 113.98 18.7423Z" stroke="white" stroke-opacity="0.15" stroke-width="3"/>
<path d="M175.758 37.4846C186.105 37.4846 194.5 29.0896 194.5 18.7423C194.5 8.39498 186.105 0 175.758 0C165.411 0 157.016 8.39498 157.016 18.7423C157.016 29.0896 165.411 37.4846 175.758 37.4846Z" fill="white" fill-opacity="0.1"/>
<path d="M193 18.7423C193 28.2612 185.277 35.9846 175.758 35.9846C166.239 35.9846 158.516 28.2612 158.516 18.7423C158.516 9.22341 166.239 1.5 175.758 1.5C185.277 1.5 193 9.22341 193 18.7423Z" stroke="white" stroke-opacity="0.15" stroke-width="3"/>
<path d="M18.7423 116.554C29.0896 116.554 37.4846 108.159 37.4846 97.8113C37.4846 87.464 29.0896 79.069 18.7423 79.069C8.39498 79.0202 0 87.464 0 97.7625C0 108.11 8.39498 116.554 18.7423 116.554Z" fill="white" fill-opacity="0.1"/>
<path d="M18.7352 80.569V80.569H18.7423C28.2612 80.569 35.9846 88.2924 35.9846 97.8113C35.9846 107.33 28.2612 115.054 18.7423 115.054C9.22848 115.054 1.5 107.286 1.5 97.7625C1.5 88.2885 9.22577 80.5241 18.7352 80.569Z" stroke="white" stroke-opacity="0.15" stroke-width="3"/>
<path d="M96.7374 116.554C107.085 116.554 115.48 108.159 115.48 97.8113C115.48 87.464 107.085 79.069 96.7374 79.069C86.3901 79.069 77.9951 87.464 77.9951 97.8113C77.9951 108.11 86.3901 116.554 96.7374 116.554Z" fill="white" fill-opacity="0.1"/>
<path d="M113.98 97.8113C113.98 107.33 106.256 115.054 96.7374 115.054C87.2211 115.054 79.4951 107.284 79.4951 97.8113C79.4951 88.2924 87.2185 80.569 96.7374 80.569C106.256 80.569 113.98 88.2924 113.98 97.8113Z" stroke="white" stroke-opacity="0.15" stroke-width="3"/>
<path d="M175.758 116.554C186.105 116.554 194.5 108.159 194.5 97.8113C194.5 87.464 186.105 79.069 175.758 79.069C165.411 79.069 157.016 87.464 157.016 97.8113C157.016 108.11 165.411 116.554 175.758 116.554Z" fill="white" fill-opacity="0.1"/>
<path d="M193 97.8113C193 107.33 185.277 115.054 175.758 115.054C166.242 115.054 158.516 107.284 158.516 97.8113C158.516 88.2924 166.239 80.569 175.758 80.569C185.277 80.569 193 88.2924 193 97.8113Z" stroke="white" stroke-opacity="0.15" stroke-width="3"/>
<path d="M18.7423 195.037C29.0896 195.037 37.4846 186.642 37.4846 176.295C37.4846 165.947 29.0896 157.552 18.7423 157.552C8.39498 157.552 0 165.947 0 176.295C0 186.642 8.39498 195.037 18.7423 195.037Z" fill="white" fill-opacity="0.1"/>
<path d="M35.9846 176.295C35.9846 185.813 28.2612 193.537 18.7423 193.537C9.22341 193.537 1.5 185.813 1.5 176.295C1.5 166.776 9.22341 159.052 18.7423 159.052C28.2612 159.052 35.9846 166.776 35.9846 176.295Z" stroke="white" stroke-opacity="0.15" stroke-width="3"/>
<path d="M96.7374 195.037C107.085 195.037 115.48 186.642 115.48 176.295C115.48 165.947 107.085 157.552 96.7374 157.552C86.3901 157.552 77.9951 165.947 77.9951 176.295C77.9951 186.642 86.3901 195.037 96.7374 195.037Z" fill="white" fill-opacity="0.1"/>
<path d="M113.98 176.295C113.98 185.813 106.256 193.537 96.7374 193.537C87.2185 193.537 79.4951 185.813 79.4951 176.295C79.4951 166.776 87.2185 159.052 96.7374 159.052C106.256 159.052 113.98 166.776 113.98 176.295Z" stroke="white" stroke-opacity="0.15" stroke-width="3"/>
<path d="M175.758 195.037C186.105 195.037 194.5 186.642 194.5 176.295C194.5 165.947 186.105 157.552 175.758 157.552C165.411 157.552 157.016 165.947 157.016 176.295C157.016 186.642 165.411 195.037 175.758 195.037Z" fill="white" fill-opacity="0.1"/>
<path d="M193 176.295C193 185.813 185.277 193.537 175.758 193.537C166.239 193.537 158.516 185.813 158.516 176.295C158.516 166.776 166.239 159.052 175.758 159.052C185.277 159.052 193 166.776 193 176.295Z" stroke="white" stroke-opacity="0.15" stroke-width="3"/>
<path d="M18.7422 37.4846V79.0202" stroke="white" stroke-opacity="0.15" stroke-width="3"/>
<path d="M18.7422 116.554V157.552" stroke="white" stroke-opacity="0.15" stroke-width="3"/>
<path d="M37.4844 176.295H77.995" stroke="white" stroke-opacity="0.15" stroke-width="3"/>
<path d="M96.7373 157.552V116.554" stroke="white" stroke-opacity="0.15" stroke-width="3"/>
<path d="M108.451 83.1689L165.41 34.4097" stroke="white" stroke-opacity="0.15" stroke-width="3"/>
</g>
<defs>
<filter id="filter0_b" x="-20" y="-20" width="234.5" height="235.037" filterUnits="userSpaceOnUse" color-interpolation-filters="sRGB">
<feFlood flood-opacity="0" result="BackgroundImageFix"/>
<feGaussianBlur in="BackgroundImage" stdDeviation="10"/>
<feComposite in2="SourceAlpha" operator="in" result="effect1_backgroundBlur"/>
<feBlend mode="normal" in="SourceGraphic" in2="effect1_backgroundBlur" result="shape"/>
</filter>
</defs>
</svg>
