<svg width="242" height="196" viewBox="0 0 242 196" fill="none" xmlns="http://www.w3.org/2000/svg">
<g filter="url(#filter0_b)">
<path d="M197.234 124.695H43.6879C38.5576 124.695 34.3931 120.531 34.3931 115.401V9.29482C34.3931 4.16456 38.5576 0 43.6879 0H197.234C202.364 0 206.528 4.16456 206.528 9.29482V115.401C206.528 120.531 202.364 124.695 197.234 124.695Z" fill="white" fill-opacity="0.1"/>
<path d="M197.234 123.195H43.6879C39.3861 123.195 35.8931 119.702 35.8931 115.401V9.29482C35.8931 4.99299 39.3861 1.5 43.6879 1.5H197.234C201.535 1.5 205.028 4.99299 205.028 9.29482V115.401C205.028 119.702 201.535 123.195 197.234 123.195Z" stroke="white" stroke-opacity="0.15" stroke-width="3"/>
<mask id="path-3-inside-1" fill="white">
<path d="M46.8868 124.695C43.1448 124.695 36.6263 125.842 35.4796 129.584L0.412745 188.311C-0.794375 190.785 0.412745 195.071 7.17261 195.071H113.52H128.488H234.835C241.595 195.071 242.742 190.785 241.595 188.311L206.528 129.584C205.442 125.903 198.863 124.695 195.121 124.695"/>
</mask>
<path d="M46.8868 124.695C43.1448 124.695 36.6263 125.842 35.4796 129.584L0.412745 188.311C-0.794375 190.785 0.412745 195.071 7.17261 195.071H113.52H128.488H234.835C241.595 195.071 242.742 190.785 241.595 188.311L206.528 129.584C205.442 125.903 198.863 124.695 195.121 124.695" fill="white" fill-opacity="0.1"/>
<path d="M35.4796 129.584L38.0553 131.122L38.2415 130.81L38.3479 130.463L35.4796 129.584ZM0.412745 188.311L-2.163 186.773L-2.22799 186.881L-2.28356 186.995L0.412745 188.311ZM241.595 188.311L244.317 187.049L244.251 186.907L244.171 186.773L241.595 188.311ZM206.528 129.584L203.651 130.433L203.758 130.797L203.953 131.122L206.528 129.584ZM46.8868 121.695C44.7749 121.695 41.873 122.011 39.2527 122.893C36.812 123.715 33.6337 125.369 32.6112 128.705L38.3479 130.463C38.4723 130.057 39.1266 129.267 41.1673 128.58C43.0284 127.953 45.2567 127.695 46.8868 127.695V121.695ZM32.9038 128.046L-2.163 186.773L2.98849 189.849L38.0553 131.122L32.9038 128.046ZM-2.28356 186.995C-3.32988 189.14 -3.32489 192.021 -1.62803 194.374C0.112188 196.786 3.18532 198.071 7.17261 198.071V192.071C4.40004 192.071 3.48968 191.212 3.23815 190.864C2.94326 190.455 2.94825 189.956 3.10905 189.626L-2.28356 186.995ZM7.17261 198.071H113.52V192.071H7.17261V198.071ZM113.52 198.071H128.488V192.071H113.52V198.071ZM128.488 198.071H234.835V192.071H128.488V198.071ZM234.835 198.071C238.825 198.071 241.888 196.784 243.62 194.365C245.302 192.015 245.296 189.161 244.317 187.049L238.873 189.572C239.041 189.935 239.035 190.461 238.741 190.872C238.496 191.214 237.605 192.071 234.835 192.071V198.071ZM244.171 186.773L209.104 128.046L203.953 131.122L239.02 189.849L244.171 186.773ZM209.406 128.735C208.42 125.394 205.203 123.738 202.784 122.918C200.162 122.03 197.246 121.695 195.121 121.695V127.695C196.738 127.695 198.982 127.965 200.858 128.6C202.935 129.304 203.551 130.093 203.651 130.433L209.406 128.735Z" fill="white" fill-opacity="0.15" mask="url(#path-3-inside-1)"/>
<path d="M102.415 165.496H141.827" stroke="white" stroke-opacity="0.15" stroke-width="3"/>
<path d="M145.146 101.398H95.7148C92.3952 101.398 89.6792 98.6821 89.6792 95.3625V58.5454C89.6792 55.2258 92.3952 52.5098 95.7148 52.5098H145.146C148.466 52.5098 151.182 55.2258 151.182 58.5454V95.3625C151.182 98.6821 148.526 101.398 145.146 101.398Z" fill="white" fill-opacity="0.1"/>
<path d="M145.146 99.8981H95.7148C93.2236 99.8981 91.1792 97.8537 91.1792 95.3625V58.5454C91.1792 56.0542 93.2236 54.0098 95.7148 54.0098H145.146C147.637 54.0098 149.682 56.0542 149.682 58.5454V95.3625C149.682 97.8635 147.688 99.8981 145.146 99.8981Z" stroke="white" stroke-opacity="0.15" stroke-width="3"/>
<mask id="path-8-inside-2" fill="white">
<path d="M101.75 50.518C101.75 40.1971 110.14 31.8076 120.461 31.8076C130.782 31.8076 139.171 40.1971 139.171 50.518"/>
</mask>
<path d="M101.75 50.518C101.75 40.1971 110.14 31.8076 120.461 31.8076C130.782 31.8076 139.171 40.1971 139.171 50.518" fill="white" fill-opacity="0.1"/>
<path d="M104.75 50.518C104.75 41.854 111.797 34.8076 120.461 34.8076V28.8076C108.483 28.8076 98.7505 38.5402 98.7505 50.518H104.75ZM120.461 34.8076C129.125 34.8076 136.171 41.854 136.171 50.518H142.171C142.171 38.5402 132.439 28.8076 120.461 28.8076V34.8076Z" fill="white" fill-opacity="0.15" mask="url(#path-8-inside-2)"/>
</g>
<defs>
<filter id="filter0_b" x="-20" y="-20" width="281.984" height="235.071" filterUnits="userSpaceOnUse" color-interpolation-filters="sRGB">
<feFlood flood-opacity="0" result="BackgroundImageFix"/>
<feGaussianBlur in="BackgroundImage" stdDeviation="10"/>
<feComposite in2="SourceAlpha" operator="in" result="effect1_backgroundBlur"/>
<feBlend mode="normal" in="SourceGraphic" in2="effect1_backgroundBlur" result="shape"/>
</filter>
</defs>
</svg>
