<svg width="183" height="215" viewBox="0 0 183 215" fill="none" xmlns="http://www.w3.org/2000/svg">
<g filter="url(#filter0_b)">
<mask id="path-1-inside-1" fill="white">
<path d="M182.8 42.1264C182.8 37.9192 181.074 33.8198 178.107 30.9071C175.086 27.9404 171.041 26.3762 166.78 26.4302C118.774 27.5089 104.912 7.71329 104.912 7.71329C101.999 2.96665 96.8747 0 91.4268 0C85.8711 0 80.8548 2.80483 78.1039 7.38966C77.996 7.55147 64.1876 27.455 16.02 26.4302C11.8667 26.3223 7.71339 27.9944 4.6928 30.9071C1.72615 33.8198 9.82296e-05 37.9192 9.82296e-05 42.1264C9.82296e-05 42.1264 9.82296e-05 79.0747 9.82296e-05 94.771C-0.10778 202.649 88.676 214.138 89.5929 214.192C90.1863 214.246 90.8335 214.3 91.4268 214.3C92.0202 214.3 92.6674 214.246 93.2068 214.192C94.1238 214.084 182.908 202.649 182.8 94.717C182.746 79.1286 182.8 42.5579 182.8 42.1264ZM45.255 110.629L73.627 139.217C74.7057 140.296 76.1621 140.997 77.6184 140.889C79.1287 140.889 80.5851 140.296 81.6099 139.217L137.545 83.0662"/>
</mask>
<path d="M182.8 42.1264C182.8 37.9192 181.074 33.8198 178.107 30.9071C175.086 27.9404 171.041 26.3762 166.78 26.4302C118.774 27.5089 104.912 7.71329 104.912 7.71329C101.999 2.96665 96.8747 0 91.4268 0C85.8711 0 80.8548 2.80483 78.1039 7.38966C77.996 7.55147 64.1876 27.455 16.02 26.4302C11.8667 26.3223 7.71339 27.9944 4.6928 30.9071C1.72615 33.8198 9.82296e-05 37.9192 9.82296e-05 42.1264C9.82296e-05 42.1264 9.82296e-05 79.0747 9.82296e-05 94.771C-0.10778 202.649 88.676 214.138 89.5929 214.192C90.1863 214.246 90.8335 214.3 91.4268 214.3C92.0202 214.3 92.6674 214.246 93.2068 214.192C94.1238 214.084 182.908 202.649 182.8 94.717C182.746 79.1286 182.8 42.5579 182.8 42.1264ZM45.255 110.629L73.627 139.217C74.7057 140.296 76.1621 140.997 77.6184 140.889C79.1287 140.889 80.5851 140.296 81.6099 139.217L137.545 83.0662" fill="white" fill-opacity="0.1"/>
<path d="M178.107 30.9071L176.005 33.0474L176.005 33.0478L178.107 30.9071ZM166.78 26.4302L166.742 23.4304L166.727 23.4306L166.712 23.4309L166.78 26.4302ZM104.912 7.71329L102.355 9.28234L102.402 9.35974L102.454 9.43413L104.912 7.71329ZM78.1039 7.38966L80.6001 9.05376L80.6396 8.99436L80.6764 8.93314L78.1039 7.38966ZM16.02 26.4302L15.9421 29.4292L15.9562 29.4295L16.02 26.4302ZM4.6928 30.9071L2.61039 28.7476L2.60067 28.7569L2.59103 28.7664L4.6928 30.9071ZM9.82296e-05 94.771L3.0001 94.774V94.771H9.82296e-05ZM89.5929 214.192L89.8645 211.204L89.8169 211.2L89.7691 211.197L89.5929 214.192ZM93.2068 214.192L93.5054 217.177L93.5314 217.175L93.5574 217.172L93.2068 214.192ZM182.8 94.717L185.8 94.714L185.8 94.7067L182.8 94.717ZM73.627 139.217L71.4976 141.33L71.5056 141.338L73.627 139.217ZM77.6184 140.889V137.889H77.5075L77.3968 137.897L77.6184 140.889ZM81.6099 139.217L79.4845 137.1L79.4594 137.125L79.4349 137.151L81.6099 139.217ZM185.8 42.1264C185.8 37.1161 183.751 32.2447 180.209 28.7664L176.005 33.0478C178.396 35.3949 179.8 38.7222 179.8 42.1264H185.8ZM180.209 28.7668C176.595 25.2176 171.77 23.3667 166.742 23.4304L166.818 29.4299C170.312 29.3857 173.577 30.6633 176.005 33.0474L180.209 28.7668ZM166.712 23.4309C143.139 23.9606 128.173 19.3638 119.203 14.8022C114.712 12.5179 111.694 10.2276 109.831 8.55652C108.899 7.72017 108.254 7.03676 107.857 6.58383C107.658 6.35731 107.521 6.18832 107.442 6.08653C107.402 6.03564 107.376 6.00154 107.364 5.98546C107.358 5.97741 107.356 5.97387 107.357 5.97499C107.357 5.97555 107.358 5.97727 107.36 5.98017C107.361 5.98163 107.363 5.98337 107.364 5.98542C107.365 5.98644 107.366 5.9882 107.366 5.98871C107.368 5.99054 107.369 5.99245 104.912 7.71329C102.454 9.43413 102.456 9.43619 102.457 9.43832C102.458 9.43913 102.459 9.44134 102.46 9.44297C102.463 9.44622 102.465 9.44977 102.468 9.45362C102.473 9.46131 102.48 9.47021 102.487 9.48028C102.502 9.50041 102.52 9.52525 102.541 9.55463C102.585 9.61339 102.643 9.69032 102.716 9.78415C102.863 9.97181 103.071 10.2271 103.345 10.5397C103.894 11.1651 104.707 12.0198 105.824 13.0225C108.061 15.0294 111.509 17.6206 116.484 20.1503C126.446 25.2169 142.414 29.9784 166.847 29.4294L166.712 23.4309ZM107.469 6.14424C104.036 0.551158 97.9669 -3 91.4268 -3V3C95.7825 3 99.9613 5.38214 102.355 9.28234L107.469 6.14424ZM91.4268 -3C84.8536 -3 78.8429 0.327041 75.5314 5.84617L80.6764 8.93314C82.8667 5.28262 86.8886 3 91.4268 3V-3ZM75.6077 5.72555C76.0856 5.00885 63.2565 24.4345 16.0838 23.4308L15.9562 29.4295C65.1188 30.4755 79.9065 10.0941 80.6001 9.05376L75.6077 5.72555ZM16.0979 23.4312C11.109 23.3016 6.18601 25.2996 2.61039 28.7476L6.77521 33.0666C9.24077 30.6891 12.6244 29.343 15.9421 29.4291L16.0979 23.4312ZM2.59103 28.7664C-0.951712 32.2447 -2.9999 37.1161 -2.9999 42.1264H3.0001C3.0001 38.7222 4.40401 35.3949 6.79457 33.0478L2.59103 28.7664ZM9.82296e-05 42.1264C-2.9999 42.1264 -2.9999 42.1266 -2.9999 42.1268C-2.9999 42.1271 -2.9999 42.1276 -2.9999 42.1281C-2.9999 42.1287 -2.9999 42.1294 -2.9999 42.1302C-2.9999 42.1311 -2.9999 42.132 -2.9999 42.1332C-2.9999 42.1343 -2.9999 42.1355 -2.9999 42.1369C-2.9999 42.1383 -2.9999 42.1399 -2.9999 42.1416C-2.9999 42.1432 -2.9999 42.145 -2.9999 42.147C-2.9999 42.1489 -2.9999 42.151 -2.9999 42.1533C-2.9999 42.1555 -2.9999 42.1579 -2.9999 42.1604C-2.9999 42.1629 -2.9999 42.1655 -2.9999 42.1683C-2.9999 42.1711 -2.9999 42.174 -2.9999 42.177C-2.9999 42.1801 -2.9999 42.1832 -2.9999 42.1866C-2.9999 42.1899 -2.9999 42.1933 -2.9999 42.1969C-2.9999 42.2005 -2.9999 42.2043 -2.9999 42.2081C-2.9999 42.212 -2.9999 42.216 -2.9999 42.2201C-2.9999 42.2242 -2.9999 42.2285 -2.9999 42.2329C-2.9999 42.2373 -2.9999 42.2418 -2.9999 42.2465C-2.9999 42.2512 -2.9999 42.256 -2.9999 42.2609C-2.9999 42.2658 -2.9999 42.2709 -2.9999 42.2761C-2.9999 42.2813 -2.9999 42.2866 -2.9999 42.2921C-2.9999 42.2976 -2.9999 42.3032 -2.9999 42.3089C-2.9999 42.3146 -2.9999 42.3205 -2.9999 42.3265C-2.9999 42.3325 -2.9999 42.3386 -2.9999 42.3448C-2.9999 42.3511 -2.9999 42.3575 -2.9999 42.364C-2.9999 42.3705 -2.9999 42.3771 -2.9999 42.3839C-2.9999 42.3907 -2.9999 42.3976 -2.9999 42.4046C-2.9999 42.4117 -2.9999 42.4188 -2.9999 42.4261C-2.9999 42.4334 -2.9999 42.4409 -2.9999 42.4484C-2.9999 42.456 -2.9999 42.4636 -2.9999 42.4715C-2.9999 42.4793 -2.9999 42.4872 -2.9999 42.4953C-2.9999 42.5033 -2.9999 42.5115 -2.9999 42.5199C-2.9999 42.5282 -2.9999 42.5366 -2.9999 42.5452C-2.9999 42.5538 -2.9999 42.5625 -2.9999 42.5713C-2.9999 42.5801 -2.9999 42.5891 -2.9999 42.5982C-2.9999 42.6073 -2.9999 42.6165 -2.9999 42.6258C-2.9999 42.6351 -2.9999 42.6446 -2.9999 42.6542C-2.9999 42.6638 -2.9999 42.6735 -2.9999 42.6833C-2.9999 42.6932 -2.9999 42.7031 -2.9999 42.7132C-2.9999 42.7233 -2.9999 42.7335 -2.9999 42.7438C-2.9999 42.7542 -2.9999 42.7646 -2.9999 42.7752C-2.9999 42.7858 -2.9999 42.7965 -2.9999 42.8073C-2.9999 42.8182 -2.9999 42.8291 -2.9999 42.8402C-2.9999 42.8513 -2.9999 42.8625 -2.9999 42.8738C-2.9999 42.8851 -2.9999 42.8965 -2.9999 42.9081C-2.9999 42.9197 -2.9999 42.9314 -2.9999 42.9432C-2.9999 42.955 -2.9999 42.9669 -2.9999 42.9789C-2.9999 42.991 -2.9999 43.0032 -2.9999 43.0155C-2.9999 43.0277 -2.9999 43.0402 -2.9999 43.0527C-2.9999 43.0652 -2.9999 43.0779 -2.9999 43.0906C-2.9999 43.1034 -2.9999 43.1163 -2.9999 43.1293C-2.9999 43.1423 -2.9999 43.1555 -2.9999 43.1687C-2.9999 43.182 -2.9999 43.1953 -2.9999 43.2088C-2.9999 43.2223 -2.9999 43.2359 -2.9999 43.2496C-2.9999 43.2633 -2.9999 43.2772 -2.9999 43.2911C-2.9999 43.3051 -2.9999 43.3192 -2.9999 43.3334C-2.9999 43.3476 -2.9999 43.3619 -2.9999 43.3763C-2.9999 43.3907 -2.9999 43.4053 -2.9999 43.4199C-2.9999 43.4346 -2.9999 43.4494 -2.9999 43.4643C-2.9999 43.4791 -2.9999 43.4941 -2.9999 43.5093C-2.9999 43.5244 -2.9999 43.5396 -2.9999 43.555C-2.9999 43.5703 -2.9999 43.5858 -2.9999 43.6014C-2.9999 43.617 -2.9999 43.6327 -2.9999 43.6485C-2.9999 43.6643 -2.9999 43.6802 -2.9999 43.6962C-2.9999 43.7123 -2.9999 43.7284 -2.9999 43.7447C-2.9999 43.761 -2.9999 43.7773 -2.9999 43.7938C-2.9999 43.8103 -2.9999 43.8269 -2.9999 43.8436C-2.9999 43.8604 -2.9999 43.8772 -2.9999 43.8941C-2.9999 43.9111 -2.9999 43.9281 -2.9999 43.9453C-2.9999 43.9625 -2.9999 43.9797 -2.9999 43.9971C-2.9999 44.0145 -2.9999 44.032 -2.9999 44.0496C-2.9999 44.0672 -2.9999 44.0849 -2.9999 44.1028C-2.9999 44.1206 -2.9999 44.1385 -2.9999 44.1566C-2.9999 44.1746 -2.9999 44.1928 -2.9999 44.211C-2.9999 44.2293 -2.9999 44.2477 -2.9999 44.2662C-2.9999 44.2847 -2.9999 44.3033 -2.9999 44.322C-2.9999 44.3407 -2.9999 44.3595 -2.9999 44.3784C-2.9999 44.3973 -2.9999 44.4163 -2.9999 44.4355C-2.9999 44.4546 -2.9999 44.4739 -2.9999 44.4932C-2.9999 44.5126 -2.9999 44.532 -2.9999 44.5516C-2.9999 44.5711 -2.9999 44.5908 -2.9999 44.6106C-2.9999 44.6304 -2.9999 44.6502 -2.9999 44.6702C-2.9999 44.6902 -2.9999 44.7103 -2.9999 44.7305C-2.9999 44.7507 -2.9999 44.771 -2.9999 44.7914C-2.9999 44.8118 -2.9999 44.8323 -2.9999 44.853C-2.9999 44.8736 -2.9999 44.8943 -2.9999 44.9151C-2.9999 44.936 -2.9999 44.9569 -2.9999 44.9779C-2.9999 44.999 -2.9999 45.0201 -2.9999 45.0414C-2.9999 45.0626 -2.9999 45.0839 -2.9999 45.1054C-2.9999 45.1268 -2.9999 45.1484 -2.9999 45.17C-2.9999 45.1917 -2.9999 45.2135 -2.9999 45.2353C-2.9999 45.2572 -2.9999 45.2791 -2.9999 45.3012C-2.9999 45.3233 -2.9999 45.3454 -2.9999 45.3677C-2.9999 45.3899 -2.9999 45.4123 -2.9999 45.4348C-2.9999 45.4572 -2.9999 45.4798 -2.9999 45.5025C-2.9999 45.5251 -2.9999 45.5479 -2.9999 45.5708C-2.9999 45.5936 -2.9999 45.6166 -2.9999 45.6397C-2.9999 45.6627 -2.9999 45.6859 -2.9999 45.7092C-2.9999 45.7324 -2.9999 45.7558 -2.9999 45.7793C-2.9999 45.8027 -2.9999 45.8263 -2.9999 45.8499C-2.9999 45.8736 -2.9999 45.8973 -2.9999 45.9212C-2.9999 45.945 -2.9999 45.969 -2.9999 45.993C-2.9999 46.0171 -2.9999 46.0412 -2.9999 46.0655C-2.9999 46.0897 -2.9999 46.1141 -2.9999 46.1385C-2.9999 46.1629 -2.9999 46.1875 -2.9999 46.2121C-2.9999 46.2367 -2.9999 46.2614 -2.9999 46.2863C-2.9999 46.3111 -2.9999 46.336 -2.9999 46.361C-2.9999 46.386 -2.9999 46.4111 -2.9999 46.4363C-2.9999 46.4615 -2.9999 46.4868 -2.9999 46.5122C-2.9999 46.5376 -2.9999 46.563 -2.9999 46.5886C-2.9999 46.6142 -2.9999 46.6399 -2.9999 46.6656C-2.9999 46.6914 -2.9999 46.7172 -2.9999 46.7432C-2.9999 46.7691 -2.9999 46.7952 -2.9999 46.8213C-2.9999 46.8474 -2.9999 46.8737 -2.9999 46.9C-2.9999 46.9263 -2.9999 46.9527 -2.9999 46.9792C-2.9999 47.0057 -2.9999 47.0323 -2.9999 47.059C-2.9999 47.0857 -2.9999 47.1124 -2.9999 47.1393C-2.9999 47.1662 -2.9999 47.1931 -2.9999 47.2202C-2.9999 47.2472 -2.9999 47.2744 -2.9999 47.3016C-2.9999 47.3288 -2.9999 47.3561 -2.9999 47.3835C-2.9999 47.4109 -2.9999 47.4384 -2.9999 47.466C-2.9999 47.4936 -2.9999 47.5213 -2.9999 47.549C-2.9999 47.5768 -2.9999 47.6046 -2.9999 47.6326C-2.9999 47.6605 -2.9999 47.6885 -2.9999 47.7166C-2.9999 47.7448 -2.9999 47.773 -2.9999 47.8012C-2.9999 47.8295 -2.9999 47.8579 -2.9999 47.8864C-2.9999 47.9148 -2.9999 47.9434 -2.9999 47.972C-2.9999 48.0006 -2.9999 48.0294 -2.9999 48.0582C-2.9999 48.087 -2.9999 48.1159 -2.9999 48.1448C-2.9999 48.1738 -2.9999 48.2029 -2.9999 48.232C-2.9999 48.2612 -2.9999 48.2904 -2.9999 48.3197C-2.9999 48.3491 -2.9999 48.3785 -2.9999 48.4079C-2.9999 48.4374 -2.9999 48.467 -2.9999 48.4967C-2.9999 48.5263 -2.9999 48.556 -2.9999 48.5859C-2.9999 48.6157 -2.9999 48.6456 -2.9999 48.6756C-2.9999 48.7056 -2.9999 48.7356 -2.9999 48.7658C-2.9999 48.7959 -2.9999 48.8262 -2.9999 48.8565C-2.9999 48.8868 -2.9999 48.9172 -2.9999 48.9477C-2.9999 48.9782 -2.9999 49.0087 -2.9999 49.0394C-2.9999 49.07 -2.9999 49.1007 -2.9999 49.1316C-2.9999 49.1624 -2.9999 49.1932 -2.9999 49.2242C-2.9999 49.2552 -2.9999 49.2862 -2.9999 49.3173C-2.9999 49.3485 -2.9999 49.3797 -2.9999 49.411C-2.9999 49.4422 -2.9999 49.4736 -2.9999 49.5051C-2.9999 49.5365 -2.9999 49.568 -2.9999 49.5996C-2.9999 49.6312 -2.9999 49.6629 -2.9999 49.6947C-2.9999 49.7264 -2.9999 49.7583 -2.9999 49.7902C-2.9999 49.8221 -2.9999 49.8541 -2.9999 49.8861C-2.9999 49.9182 -2.9999 49.9504 -2.9999 49.9826C-2.9999 50.0148 -2.9999 50.0471 -2.9999 50.0795C-2.9999 50.1118 -2.9999 50.1443 -2.9999 50.1768C-2.9999 50.2094 -2.9999 50.242 -2.9999 50.2746C-2.9999 50.3073 -2.9999 50.3401 -2.9999 50.3729C-2.9999 50.4057 -2.9999 50.4386 -2.9999 50.4716C-2.9999 50.5046 -2.9999 50.5376 -2.9999 50.5708C-2.9999 50.6039 -2.9999 50.6371 -2.9999 50.6704C-2.9999 50.7037 -2.9999 50.737 -2.9999 50.7704C-2.9999 50.8038 -2.9999 50.8373 -2.9999 50.8709C-2.9999 50.9045 -2.9999 50.9381 -2.9999 50.9718C-2.9999 51.0055 -2.9999 51.0393 -2.9999 51.0732C-2.9999 51.1071 -2.9999 51.141 -2.9999 51.175C-2.9999 51.209 -2.9999 51.2431 -2.9999 51.2772C-2.9999 51.3113 -2.9999 51.3456 -2.9999 51.3799C-2.9999 51.4141 -2.9999 51.4485 -2.9999 51.4829C-2.9999 51.5173 -2.9999 51.5518 -2.9999 51.5864C-2.9999 51.621 -2.9999 51.6556 -2.9999 51.6903C-2.9999 51.725 -2.9999 51.7598 -2.9999 51.7947C-2.9999 51.8295 -2.9999 51.8644 -2.9999 51.8994C-2.9999 51.9344 -2.9999 51.9694 -2.9999 52.0046C-2.9999 52.0397 -2.9999 52.0749 -2.9999 52.1101C-2.9999 52.1454 -2.9999 52.1807 -2.9999 52.2161C-2.9999 52.2515 -2.9999 52.2869 -2.9999 52.3225C-2.9999 52.358 -2.9999 52.3936 -2.9999 52.4292C-2.9999 52.4649 -2.9999 52.5006 -2.9999 52.5364C-2.9999 52.5722 -2.9999 52.608 -2.9999 52.644C-2.9999 52.6799 -2.9999 52.7159 -2.9999 52.7519C-2.9999 52.788 -2.9999 52.8241 -2.9999 52.8603C-2.9999 52.8965 -2.9999 52.9327 -2.9999 52.969C-2.9999 53.0053 -2.9999 53.0417 -2.9999 53.0781C-2.9999 53.1146 -2.9999 53.1511 -2.9999 53.1876C-2.9999 53.2242 -2.9999 53.2608 -2.9999 53.2975C-2.9999 53.3342 -2.9999 53.371 -2.9999 53.4078C-2.9999 53.4446 -2.9999 53.4815 -2.9999 53.5184C-2.9999 53.5554 -2.9999 53.5924 -2.9999 53.6294C-2.9999 53.6665 -2.9999 53.7036 -2.9999 53.7408C-2.9999 53.778 -2.9999 53.8152 -2.9999 53.8526C-2.9999 53.8899 -2.9999 53.9272 -2.9999 53.9647C-2.9999 54.0021 -2.9999 54.0396 -2.9999 54.0771C-2.9999 54.1147 -2.9999 54.1523 -2.9999 54.19C-2.9999 54.2276 -2.9999 54.2654 -2.9999 54.3031C-2.9999 54.3409 -2.9999 54.3788 -2.9999 54.4167C-2.9999 54.4546 -2.9999 54.4926 -2.9999 54.5306C-2.9999 54.5686 -2.9999 54.6067 -2.9999 54.6448C-2.9999 54.683 -2.9999 54.7212 -2.9999 54.7594C-2.9999 54.7977 -2.9999 54.836 -2.9999 54.8743C-2.9999 54.9127 -2.9999 54.9511 -2.9999 54.9896C-2.9999 55.0281 -2.9999 55.0666 -2.9999 55.1052C-2.9999 55.1438 -2.9999 55.1825 -2.9999 55.2212C-2.9999 55.2599 -2.9999 55.2986 -2.9999 55.3374C-2.9999 55.3763 -2.9999 55.4151 -2.9999 55.4541C-2.9999 55.493 -2.9999 55.532 -2.9999 55.571C-2.9999 55.61 -2.9999 55.6491 -2.9999 55.6883C-2.9999 55.7274 -2.9999 55.7666 -2.9999 55.8058C-2.9999 55.8451 -2.9999 55.8844 -2.9999 55.9238C-2.9999 55.9631 -2.9999 56.0025 -2.9999 56.042C-2.9999 56.0814 -2.9999 56.1209 -2.9999 56.1605C-2.9999 56.2001 -2.9999 56.2397 -2.9999 56.2794C-2.9999 56.319 -2.9999 56.3587 -2.9999 56.3985C-2.9999 56.4383 -2.9999 56.4781 -2.9999 56.518C-2.9999 56.5579 -2.9999 56.5978 -2.9999 56.6378C-2.9999 56.6777 -2.9999 56.7178 -2.9999 56.7578C-2.9999 56.7979 -2.9999 56.838 -2.9999 56.8782C-2.9999 56.9184 -2.9999 56.9586 -2.9999 56.9989C-2.9999 57.0392 -2.9999 57.0795 -2.9999 57.1198C-2.9999 57.1602 -2.9999 57.2006 -2.9999 57.2411C-2.9999 57.2816 -2.9999 57.3221 -2.9999 57.3626C-2.9999 57.4032 -2.9999 57.4438 -2.9999 57.4845C-2.9999 57.5251 -2.9999 57.5658 -2.9999 57.6066C-2.9999 57.6473 -2.9999 57.6881 -2.9999 57.729C-2.9999 57.7698 -2.9999 57.8107 -2.9999 57.8517C-2.9999 57.8926 -2.9999 57.9336 -2.9999 57.9746C-2.9999 58.0156 -2.9999 58.0567 -2.9999 58.0978C-2.9999 58.139 -2.9999 58.1801 -2.9999 58.2213C-2.9999 58.2625 -2.9999 58.3038 -2.9999 58.3451C-2.9999 58.3864 -2.9999 58.4277 -2.9999 58.4691C-2.9999 58.5105 -2.9999 58.5519 -2.9999 58.5934C-2.9999 58.6349 -2.9999 58.6764 -2.9999 58.718C-2.9999 58.7595 -2.9999 58.8011 -2.9999 58.8428C-2.9999 58.8844 -2.9999 58.9261 -2.9999 58.9678C-2.9999 59.0096 -2.9999 59.0513 -2.9999 59.0931C-2.9999 59.135 -2.9999 59.1768 -2.9999 59.2187C-2.9999 59.2606 -2.9999 59.3025 -2.9999 59.3445C-2.9999 59.3865 -2.9999 59.4285 -2.9999 59.4706C-2.9999 59.5126 -2.9999 59.5547 -2.9999 59.5969C-2.9999 59.639 -2.9999 59.6812 -2.9999 59.7234C-2.9999 59.7656 -2.9999 59.8079 -2.9999 59.8502C-2.9999 59.8925 -2.9999 59.9348 -2.9999 59.9772C-2.9999 60.0196 -2.9999 60.062 -2.9999 60.1044C-2.9999 60.1469 -2.9999 60.1894 -2.9999 60.2319C-2.9999 60.2744 -2.9999 60.317 -2.9999 60.3596C-2.9999 60.4022 -2.9999 60.4449 -2.9999 60.4875C-2.9999 60.5302 -2.9999 60.5729 -2.9999 60.6157C-2.9999 60.6584 -2.9999 60.7012 -2.9999 60.744C-2.9999 60.7869 -2.9999 60.8297 -2.9999 60.8726C-2.9999 60.9155 -2.9999 60.9584 -2.9999 61.0014C-2.9999 61.0444 -2.9999 61.0874 -2.9999 61.1304C-2.9999 61.1734 -2.9999 61.2165 -2.9999 61.2596C-2.9999 61.3027 -2.9999 61.3459 -2.9999 61.389C-2.9999 61.4322 -2.9999 61.4754 -2.9999 61.5187C-2.9999 61.5619 -2.9999 61.6052 -2.9999 61.6485C-2.9999 61.6918 -2.9999 61.7351 -2.9999 61.7785C-2.9999 61.8219 -2.9999 61.8653 -2.9999 61.9087C-2.9999 61.9521 -2.9999 61.9956 -2.9999 62.0391C-2.9999 62.0826 -2.9999 62.1261 -2.9999 62.1697C-2.9999 62.2133 -2.9999 62.2569 -2.9999 62.3005C-2.9999 62.3441 -2.9999 62.3878 -2.9999 62.4314C-2.9999 62.4751 -2.9999 62.5188 -2.9999 62.5626C-2.9999 62.6063 -2.9999 62.6501 -2.9999 62.6939C-2.9999 62.7377 -2.9999 62.7816 -2.9999 62.8254C-2.9999 62.8693 -2.9999 62.9132 -2.9999 62.9571C-2.9999 63.001 -2.9999 63.045 -2.9999 63.089C-2.9999 63.1329 -2.9999 63.1769 -2.9999 63.221C-2.9999 63.265 -2.9999 63.3091 -2.9999 63.3532C-2.9999 63.3973 -2.9999 63.4414 -2.9999 63.4855C-2.9999 63.5297 -2.9999 63.5738 -2.9999 63.618C-2.9999 63.6622 -2.9999 63.7065 -2.9999 63.7507C-2.9999 63.795 -2.9999 63.8392 -2.9999 63.8835C-2.9999 63.9278 -2.9999 63.9722 -2.9999 64.0165C-2.9999 64.0609 -2.9999 64.1053 -2.9999 64.1497C-2.9999 64.1941 -2.9999 64.2385 -2.9999 64.2829C-2.9999 64.3274 -2.9999 64.3719 -2.9999 64.4164C-2.9999 64.4609 -2.9999 64.5054 -2.9999 64.5499C-2.9999 64.5945 -2.9999 64.6391 -2.9999 64.6836C-2.9999 64.7282 -2.9999 64.7729 -2.9999 64.8175C-2.9999 64.8621 -2.9999 64.9068 -2.9999 64.9515C-2.9999 64.9962 -2.9999 65.0409 -2.9999 65.0856C-2.9999 65.1303 -2.9999 65.1751 -2.9999 65.2198C-2.9999 65.2646 -2.9999 65.3094 -2.9999 65.3542C-2.9999 65.399 -2.9999 65.4439 -2.9999 65.4887C-2.9999 65.5336 -2.9999 65.5784 -2.9999 65.6233C-2.9999 65.6682 -2.9999 65.7132 -2.9999 65.7581C-2.9999 65.803 -2.9999 65.848 -2.9999 65.8929C-2.9999 65.9379 -2.9999 65.9829 -2.9999 66.0279C-2.9999 66.0729 -2.9999 66.118 -2.9999 66.163C-2.9999 66.208 -2.9999 66.2531 -2.9999 66.2982C-2.9999 66.3433 -2.9999 66.3884 -2.9999 66.4335C-2.9999 66.4786 -2.9999 66.5238 -2.9999 66.5689C-2.9999 66.6141 -2.9999 66.6592 -2.9999 66.7044C-2.9999 66.7496 -2.9999 66.7948 -2.9999 66.84C-2.9999 66.8852 -2.9999 66.9305 -2.9999 66.9757C-2.9999 67.021 -2.9999 67.0662 -2.9999 67.1115C-2.9999 67.1568 -2.9999 67.2021 -2.9999 67.2474C-2.9999 67.2927 -2.9999 67.338 -2.9999 67.3834C-2.9999 67.4287 -2.9999 67.4741 -2.9999 67.5194C-2.9999 67.5648 -2.9999 67.6102 -2.9999 67.6556C-2.9999 67.701 -2.9999 67.7464 -2.9999 67.7918C-2.9999 67.8372 -2.9999 67.8827 -2.9999 67.9281C-2.9999 67.9736 -2.9999 68.019 -2.9999 68.0645C-2.9999 68.11 -2.9999 68.1555 -2.9999 68.201C-2.9999 68.2465 -2.9999 68.292 -2.9999 68.3375C-2.9999 68.383 -2.9999 68.4285 -2.9999 68.4741C-2.9999 68.5196 -2.9999 68.5652 -2.9999 68.6107C-2.9999 68.6563 -2.9999 68.7019 -2.9999 68.7475C-2.9999 68.793 -2.9999 68.8386 -2.9999 68.8842C-2.9999 68.9298 -2.9999 68.9754 -2.9999 69.0211C-2.9999 69.0667 -2.9999 69.1123 -2.9999 69.158C-2.9999 69.2036 -2.9999 69.2492 -2.9999 69.2949C-2.9999 69.3406 -2.9999 69.3862 -2.9999 69.4319C-2.9999 69.4776 -2.9999 69.5232 -2.9999 69.5689C-2.9999 69.6146 -2.9999 69.6603 -2.9999 69.706C-2.9999 69.7517 -2.9999 69.7974 -2.9999 69.8431C-2.9999 69.8889 -2.9999 69.9346 -2.9999 69.9803C-2.9999 70.026 -2.9999 70.0718 -2.9999 70.1175C-2.9999 70.1633 -2.9999 70.209 -2.9999 70.2548C-2.9999 70.3005 -2.9999 70.3463 -2.9999 70.392C-2.9999 70.4378 -2.9999 70.4835 -2.9999 70.5293C-2.9999 70.5751 -2.9999 70.6209 -2.9999 70.6666C-2.9999 70.7124 -2.9999 70.7582 -2.9999 70.804C-2.9999 70.8498 -2.9999 70.8956 -2.9999 70.9413C-2.9999 70.9871 -2.9999 71.0329 -2.9999 71.0787C-2.9999 71.1245 -2.9999 71.1703 -2.9999 71.2161C-2.9999 71.2619 -2.9999 71.3077 -2.9999 71.3535C-2.9999 71.3994 -2.9999 71.4452 -2.9999 71.491C-2.9999 71.5368 -2.9999 71.5826 -2.9999 71.6284C-2.9999 71.6742 -2.9999 71.72 -2.9999 71.7658C-2.9999 71.8117 -2.9999 71.8575 -2.9999 71.9033C-2.9999 71.9491 -2.9999 71.9949 -2.9999 72.0407C-2.9999 72.0865 -2.9999 72.1323 -2.9999 72.1782C-2.9999 72.224 -2.9999 72.2698 -2.9999 72.3156C-2.9999 72.3614 -2.9999 72.4072 -2.9999 72.453C-2.9999 72.4988 -2.9999 72.5446 -2.9999 72.5904C-2.9999 72.6362 -2.9999 72.682 -2.9999 72.7278C-2.9999 72.7736 -2.9999 72.8194 -2.9999 72.8652C-2.9999 72.911 -2.9999 72.9568 -2.9999 73.0026C-2.9999 73.0484 -2.9999 73.0942 -2.9999 73.1399C-2.9999 73.1857 -2.9999 73.2315 -2.9999 73.2773C-2.9999 73.323 -2.9999 73.3688 -2.9999 73.4146C-2.9999 73.4603 -2.9999 73.5061 -2.9999 73.5518C-2.9999 73.5976 -2.9999 73.6433 -2.9999 73.6891C-2.9999 73.7348 -2.9999 73.7805 -2.9999 73.8263C-2.9999 73.872 -2.9999 73.9177 -2.9999 73.9634C-2.9999 74.0091 -2.9999 74.0549 -2.9999 74.1006C-2.9999 74.1463 -2.9999 74.192 -2.9999 74.2376C-2.9999 74.2833 -2.9999 74.329 -2.9999 74.3747C-2.9999 74.4204 -2.9999 74.466 -2.9999 74.5117C-2.9999 74.5574 -2.9999 74.603 -2.9999 74.6486C-2.9999 74.6943 -2.9999 74.7399 -2.9999 74.7855C-2.9999 74.8312 -2.9999 74.8768 -2.9999 74.9224C-2.9999 74.968 -2.9999 75.0136 -2.9999 75.0592C-2.9999 75.1047 -2.9999 75.1503 -2.9999 75.1959C-2.9999 75.2414 -2.9999 75.287 -2.9999 75.3326C-2.9999 75.3781 -2.9999 75.4236 -2.9999 75.4691C-2.9999 75.5147 -2.9999 75.5602 -2.9999 75.6057C-2.9999 75.6512 -2.9999 75.6967 -2.9999 75.7421C-2.9999 75.7876 -2.9999 75.8331 -2.9999 75.8785C-2.9999 75.924 -2.9999 75.9694 -2.9999 76.0148C-2.9999 76.0603 -2.9999 76.1057 -2.9999 76.1511C-2.9999 76.1965 -2.9999 76.2419 -2.9999 76.2872C-2.9999 76.3326 -2.9999 76.3779 -2.9999 76.4233C-2.9999 76.4686 -2.9999 76.514 -2.9999 76.5593C-2.9999 76.6046 -2.9999 76.6499 -2.9999 76.6952C-2.9999 76.7405 -2.9999 76.7857 -2.9999 76.831C-2.9999 76.8762 -2.9999 76.9215 -2.9999 76.9667C-2.9999 77.0119 -2.9999 77.0571 -2.9999 77.1023C-2.9999 77.1475 -2.9999 77.1927 -2.9999 77.2378C-2.9999 77.283 -2.9999 77.3281 -2.9999 77.3732C-2.9999 77.4184 -2.9999 77.4635 -2.9999 77.5085C-2.9999 77.5536 -2.9999 77.5987 -2.9999 77.6437C-2.9999 77.6888 -2.9999 77.7338 -2.9999 77.7788C-2.9999 77.8239 -2.9999 77.8689 -2.9999 77.9138C-2.9999 77.9588 -2.9999 78.0038 -2.9999 78.0487C-2.9999 78.0936 -2.9999 78.1385 -2.9999 78.1834C-2.9999 78.2283 -2.9999 78.2732 -2.9999 78.3181C-2.9999 78.3629 -2.9999 78.4078 -2.9999 78.4526C-2.9999 78.4974 -2.9999 78.5422 -2.9999 78.587C-2.9999 78.6318 -2.9999 78.6765 -2.9999 78.7212C-2.9999 78.766 -2.9999 78.8107 -2.9999 78.8554C-2.9999 78.9 -2.9999 78.9447 -2.9999 78.9894C-2.9999 79.034 -2.9999 79.0786 -2.9999 79.1232C-2.9999 79.1678 -2.9999 79.2124 -2.9999 79.2569C-2.9999 79.3015 -2.9999 79.346 -2.9999 79.3905C-2.9999 79.435 -2.9999 79.4795 -2.9999 79.524C-2.9999 79.5684 -2.9999 79.6128 -2.9999 79.6573C-2.9999 79.7017 -2.9999 79.746 -2.9999 79.7904C-2.9999 79.8348 -2.9999 79.8791 -2.9999 79.9234C-2.9999 79.9677 -2.9999 80.012 -2.9999 80.0562C-2.9999 80.1005 -2.9999 80.1447 -2.9999 80.1889C-2.9999 80.2331 -2.9999 80.2773 -2.9999 80.3214C-2.9999 80.3656 -2.9999 80.4097 -2.9999 80.4538C-2.9999 80.4979 -2.9999 80.542 -2.9999 80.586C-2.9999 80.6301 -2.9999 80.6741 -2.9999 80.7181C-2.9999 80.762 -2.9999 80.806 -2.9999 80.8499C-2.9999 80.8938 -2.9999 80.9377 -2.9999 80.9816C-2.9999 81.0255 -2.9999 81.0693 -2.9999 81.1131C-2.9999 81.1569 -2.9999 81.2007 -2.9999 81.2445C-2.9999 81.2882 -2.9999 81.332 -2.9999 81.3756C-2.9999 81.4193 -2.9999 81.463 -2.9999 81.5066C-2.9999 81.5503 -2.9999 81.5939 -2.9999 81.6374C-2.9999 81.681 -2.9999 81.7245 -2.9999 81.768C-2.9999 81.8115 -2.9999 81.855 -2.9999 81.8985C-2.9999 81.9419 -2.9999 81.9853 -2.9999 82.0287C-2.9999 82.0721 -2.9999 82.1154 -2.9999 82.1587C-2.9999 82.202 -2.9999 82.2453 -2.9999 82.2886C-2.9999 82.3318 -2.9999 82.375 -2.9999 82.4182C-2.9999 82.4614 -2.9999 82.5045 -2.9999 82.5476C-2.9999 82.5907 -2.9999 82.6338 -2.9999 82.6768C-2.9999 82.7199 -2.9999 82.7629 -2.9999 82.8059C-2.9999 82.8488 -2.9999 82.8918 -2.9999 82.9347C-2.9999 82.9776 -2.9999 83.0204 -2.9999 83.0633C-2.9999 83.1061 -2.9999 83.1489 -2.9999 83.1917C-2.9999 83.2344 -2.9999 83.2771 -2.9999 83.3198C-2.9999 83.3625 -2.9999 83.4051 -2.9999 83.4477C-2.9999 83.4904 -2.9999 83.5329 -2.9999 83.5755C-2.9999 83.618 -2.9999 83.6605 -2.9999 83.703C-2.9999 83.7454 -2.9999 83.7878 -2.9999 83.8302C-2.9999 83.8726 -2.9999 83.9149 -2.9999 83.9572C-2.9999 83.9995 -2.9999 84.0418 -2.9999 84.084C-2.9999 84.1263 -2.9999 84.1685 -2.9999 84.2106C-2.9999 84.2527 -2.9999 84.2949 -2.9999 84.3369C-2.9999 84.379 -2.9999 84.421 -2.9999 84.463C-2.9999 84.505 -2.9999 84.5469 -2.9999 84.5888C-2.9999 84.6307 -2.9999 84.6726 -2.9999 84.7144C-2.9999 84.7562 -2.9999 84.798 -2.9999 84.8398C-2.9999 84.8815 -2.9999 84.9232 -2.9999 84.9648C-2.9999 85.0065 -2.9999 85.0481 -2.9999 85.0897C-2.9999 85.1312 -2.9999 85.1728 -2.9999 85.2142C-2.9999 85.2557 -2.9999 85.2972 -2.9999 85.3386C-2.9999 85.3799 -2.9999 85.4213 -2.9999 85.4626C-2.9999 85.5039 -2.9999 85.5452 -2.9999 85.5864C-2.9999 85.6276 -2.9999 85.6688 -2.9999 85.7099C-2.9999 85.751 -2.9999 85.7921 -2.9999 85.8331C-2.9999 85.8742 -2.9999 85.9152 -2.9999 85.9561C-2.9999 85.9971 -2.9999 86.038 -2.9999 86.0788C-2.9999 86.1197 -2.9999 86.1605 -2.9999 86.2012C-2.9999 86.242 -2.9999 86.2827 -2.9999 86.3234C-2.9999 86.364 -2.9999 86.4047 -2.9999 86.4452C-2.9999 86.4858 -2.9999 86.5263 -2.9999 86.5668C-2.9999 86.6073 -2.9999 86.6477 -2.9999 86.6881C-2.9999 86.7285 -2.9999 86.7688 -2.9999 86.8091C-2.9999 86.8493 -2.9999 86.8896 -2.9999 86.9298C-2.9999 86.9699 -2.9999 87.0101 -2.9999 87.0502C-2.9999 87.0902 -2.9999 87.1303 -2.9999 87.1703C-2.9999 87.2102 -2.9999 87.2502 -2.9999 87.2901C-2.9999 87.3299 -2.9999 87.3698 -2.9999 87.4095C-2.9999 87.4493 -2.9999 87.4891 -2.9999 87.5287C-2.9999 87.5684 -2.9999 87.608 -2.9999 87.6476C-2.9999 87.6872 -2.9999 87.7267 -2.9999 87.7662C-2.9999 87.8056 -2.9999 87.8451 -2.9999 87.8844C-2.9999 87.9238 -2.9999 87.9631 -2.9999 88.0024C-2.9999 88.0416 -2.9999 88.0808 -2.9999 88.12C-2.9999 88.1591 -2.9999 88.1982 -2.9999 88.2373C-2.9999 88.2763 -2.9999 88.3153 -2.9999 88.3542C-2.9999 88.3932 -2.9999 88.432 -2.9999 88.4709C-2.9999 88.5097 -2.9999 88.5485 -2.9999 88.5872C-2.9999 88.6259 -2.9999 88.6645 -2.9999 88.7031C-2.9999 88.7417 -2.9999 88.7803 -2.9999 88.8188C-2.9999 88.8573 -2.9999 88.8957 -2.9999 88.9341C-2.9999 88.9725 -2.9999 89.0108 -2.9999 89.049C-2.9999 89.0873 -2.9999 89.1255 -2.9999 89.1637C-2.9999 89.2018 -2.9999 89.2399 -2.9999 89.2779C-2.9999 89.316 -2.9999 89.3539 -2.9999 89.3918C-2.9999 89.4298 -2.9999 89.4676 -2.9999 89.5054C-2.9999 89.5432 -2.9999 89.581 -2.9999 89.6186C-2.9999 89.6563 -2.9999 89.6939 -2.9999 89.7315C-2.9999 89.7691 -2.9999 89.8066 -2.9999 89.844C-2.9999 89.8814 -2.9999 89.9188 -2.9999 89.9561C-2.9999 89.9935 -2.9999 90.0307 -2.9999 90.0679C-2.9999 90.1051 -2.9999 90.1422 -2.9999 90.1793C-2.9999 90.2164 -2.9999 90.2534 -2.9999 90.2904C-2.9999 90.3273 -2.9999 90.3642 -2.9999 90.401C-2.9999 90.4379 -2.9999 90.4746 -2.9999 90.5113C-2.9999 90.548 -2.9999 90.5847 -2.9999 90.6212C-2.9999 90.6578 -2.9999 90.6943 -2.9999 90.7308C-2.9999 90.7672 -2.9999 90.8036 -2.9999 90.8399C-2.9999 90.8763 -2.9999 90.9125 -2.9999 90.9487C-2.9999 90.9849 -2.9999 91.021 -2.9999 91.0571C-2.9999 91.0931 -2.9999 91.1291 -2.9999 91.1651C-2.9999 91.201 -2.9999 91.2369 -2.9999 91.2727C-2.9999 91.3085 -2.9999 91.3442 -2.9999 91.3799C-2.9999 91.4155 -2.9999 91.4511 -2.9999 91.4867C-2.9999 91.5222 -2.9999 91.5577 -2.9999 91.5931C-2.9999 91.6285 -2.9999 91.6638 -2.9999 91.6991C-2.9999 91.7344 -2.9999 91.7696 -2.9999 91.8047C-2.9999 91.8398 -2.9999 91.8749 -2.9999 91.9099C-2.9999 91.9449 -2.9999 91.9798 -2.9999 92.0146C-2.9999 92.0495 -2.9999 92.0843 -2.9999 92.119C-2.9999 92.1537 -2.9999 92.1884 -2.9999 92.223C-2.9999 92.2575 -2.9999 92.292 -2.9999 92.3265C-2.9999 92.3609 -2.9999 92.3953 -2.9999 92.4296C-2.9999 92.4639 -2.9999 92.4981 -2.9999 92.5323C-2.9999 92.5664 -2.9999 92.6005 -2.9999 92.6345C-2.9999 92.6685 -2.9999 92.7025 -2.9999 92.7364C-2.9999 92.7702 -2.9999 92.804 -2.9999 92.8378C-2.9999 92.8715 -2.9999 92.9051 -2.9999 92.9387C-2.9999 92.9723 -2.9999 93.0058 -2.9999 93.0392C-2.9999 93.0727 -2.9999 93.106 -2.9999 93.1393C-2.9999 93.1726 -2.9999 93.2058 -2.9999 93.239C-2.9999 93.2721 -2.9999 93.3052 -2.9999 93.3382C-2.9999 93.3711 -2.9999 93.4041 -2.9999 93.4369C-2.9999 93.4697 -2.9999 93.5025 -2.9999 93.5352C-2.9999 93.5679 -2.9999 93.6005 -2.9999 93.6331C-2.9999 93.6656 -2.9999 93.6981 -2.9999 93.7304C-2.9999 93.7628 -2.9999 93.7952 -2.9999 93.8274C-2.9999 93.8596 -2.9999 93.8918 -2.9999 93.9239C-2.9999 93.9559 -2.9999 93.9879 -2.9999 94.0199C-2.9999 94.0518 -2.9999 94.0836 -2.9999 94.1154C-2.9999 94.1472 -2.9999 94.1789 -2.9999 94.2105C-2.9999 94.2421 -2.9999 94.2736 -2.9999 94.3051C-2.9999 94.3365 -2.9999 94.3679 -2.9999 94.3992C-2.9999 94.4305 -2.9999 94.4617 -2.9999 94.4929C-2.9999 94.524 -2.9999 94.5551 -2.9999 94.5861C-2.9999 94.617 -2.9999 94.6479 -2.9999 94.6788C-2.9999 94.7096 -2.9999 94.7403 -2.9999 94.771H3.0001C3.0001 94.7403 3.0001 94.7096 3.0001 94.6788C3.0001 94.6479 3.0001 94.617 3.0001 94.5861C3.0001 94.5551 3.0001 94.524 3.0001 94.4929C3.0001 94.4617 3.0001 94.4305 3.0001 94.3992C3.0001 94.3679 3.0001 94.3365 3.0001 94.3051C3.0001 94.2736 3.0001 94.2421 3.0001 94.2105C3.0001 94.1789 3.0001 94.1472 3.0001 94.1154C3.0001 94.0836 3.0001 94.0518 3.0001 94.0199C3.0001 93.9879 3.0001 93.9559 3.0001 93.9239C3.0001 93.8918 3.0001 93.8596 3.0001 93.8274C3.0001 93.7952 3.0001 93.7628 3.0001 93.7304C3.0001 93.6981 3.0001 93.6656 3.0001 93.6331C3.0001 93.6005 3.0001 93.5679 3.0001 93.5352C3.0001 93.5025 3.0001 93.4697 3.0001 93.4369C3.0001 93.4041 3.0001 93.3711 3.0001 93.3382C3.0001 93.3052 3.0001 93.2721 3.0001 93.239C3.0001 93.2058 3.0001 93.1726 3.0001 93.1393C3.0001 93.106 3.0001 93.0727 3.0001 93.0392C3.0001 93.0058 3.0001 92.9723 3.0001 92.9387C3.0001 92.9051 3.0001 92.8715 3.0001 92.8378C3.0001 92.804 3.0001 92.7702 3.0001 92.7364C3.0001 92.7025 3.0001 92.6685 3.0001 92.6345C3.0001 92.6005 3.0001 92.5664 3.0001 92.5323C3.0001 92.4981 3.0001 92.4639 3.0001 92.4296C3.0001 92.3953 3.0001 92.3609 3.0001 92.3265C3.0001 92.292 3.0001 92.2575 3.0001 92.223C3.0001 92.1884 3.0001 92.1537 3.0001 92.119C3.0001 92.0843 3.0001 92.0495 3.0001 92.0146C3.0001 91.9798 3.0001 91.9449 3.0001 91.9099C3.0001 91.8749 3.0001 91.8398 3.0001 91.8047C3.0001 91.7696 3.0001 91.7344 3.0001 91.6991C3.0001 91.6638 3.0001 91.6285 3.0001 91.5931C3.0001 91.5577 3.0001 91.5222 3.0001 91.4867C3.0001 91.4511 3.0001 91.4155 3.0001 91.3799C3.0001 91.3442 3.0001 91.3085 3.0001 91.2727C3.0001 91.2369 3.0001 91.201 3.0001 91.1651C3.0001 91.1291 3.0001 91.0931 3.0001 91.0571C3.0001 91.021 3.0001 90.9849 3.0001 90.9487C3.0001 90.9125 3.0001 90.8763 3.0001 90.8399C3.0001 90.8036 3.0001 90.7672 3.0001 90.7308C3.0001 90.6943 3.0001 90.6578 3.0001 90.6212C3.0001 90.5847 3.0001 90.548 3.0001 90.5113C3.0001 90.4746 3.0001 90.4379 3.0001 90.401C3.0001 90.3642 3.0001 90.3273 3.0001 90.2904C3.0001 90.2534 3.0001 90.2164 3.0001 90.1793C3.0001 90.1422 3.0001 90.1051 3.0001 90.0679C3.0001 90.0307 3.0001 89.9935 3.0001 89.9561C3.0001 89.9188 3.0001 89.8814 3.0001 89.844C3.0001 89.8066 3.0001 89.7691 3.0001 89.7315C3.0001 89.6939 3.0001 89.6563 3.0001 89.6186C3.0001 89.581 3.0001 89.5432 3.0001 89.5054C3.0001 89.4676 3.0001 89.4298 3.0001 89.3918C3.0001 89.3539 3.0001 89.316 3.0001 89.2779C3.0001 89.2399 3.0001 89.2018 3.0001 89.1637C3.0001 89.1255 3.0001 89.0873 3.0001 89.049C3.0001 89.0108 3.0001 88.9725 3.0001 88.9341C3.0001 88.8957 3.0001 88.8573 3.0001 88.8188C3.0001 88.7803 3.0001 88.7417 3.0001 88.7031C3.0001 88.6645 3.0001 88.6259 3.0001 88.5872C3.0001 88.5485 3.0001 88.5097 3.0001 88.4709C3.0001 88.432 3.0001 88.3932 3.0001 88.3542C3.0001 88.3153 3.0001 88.2763 3.0001 88.2373C3.0001 88.1982 3.0001 88.1591 3.0001 88.12C3.0001 88.0808 3.0001 88.0416 3.0001 88.0024C3.0001 87.9631 3.0001 87.9238 3.0001 87.8844C3.0001 87.8451 3.0001 87.8056 3.0001 87.7662C3.0001 87.7267 3.0001 87.6872 3.0001 87.6476C3.0001 87.608 3.0001 87.5684 3.0001 87.5287C3.0001 87.4891 3.0001 87.4493 3.0001 87.4095C3.0001 87.3698 3.0001 87.3299 3.0001 87.2901C3.0001 87.2502 3.0001 87.2102 3.0001 87.1703C3.0001 87.1303 3.0001 87.0902 3.0001 87.0502C3.0001 87.0101 3.0001 86.9699 3.0001 86.9298C3.0001 86.8896 3.0001 86.8493 3.0001 86.8091C3.0001 86.7688 3.0001 86.7285 3.0001 86.6881C3.0001 86.6477 3.0001 86.6073 3.0001 86.5668C3.0001 86.5263 3.0001 86.4858 3.0001 86.4452C3.0001 86.4047 3.0001 86.364 3.0001 86.3234C3.0001 86.2827 3.0001 86.242 3.0001 86.2012C3.0001 86.1605 3.0001 86.1197 3.0001 86.0788C3.0001 86.038 3.0001 85.9971 3.0001 85.9561C3.0001 85.9152 3.0001 85.8742 3.0001 85.8331C3.0001 85.7921 3.0001 85.751 3.0001 85.7099C3.0001 85.6688 3.0001 85.6276 3.0001 85.5864C3.0001 85.5452 3.0001 85.5039 3.0001 85.4626C3.0001 85.4213 3.0001 85.3799 3.0001 85.3386C3.0001 85.2972 3.0001 85.2557 3.0001 85.2142C3.0001 85.1728 3.0001 85.1312 3.0001 85.0897C3.0001 85.0481 3.0001 85.0065 3.0001 84.9648C3.0001 84.9232 3.0001 84.8815 3.0001 84.8398C3.0001 84.798 3.0001 84.7562 3.0001 84.7144C3.0001 84.6726 3.0001 84.6307 3.0001 84.5888C3.0001 84.5469 3.0001 84.505 3.0001 84.463C3.0001 84.421 3.0001 84.379 3.0001 84.3369C3.0001 84.2949 3.0001 84.2527 3.0001 84.2106C3.0001 84.1685 3.0001 84.1263 3.0001 84.084C3.0001 84.0418 3.0001 83.9995 3.0001 83.9572C3.0001 83.9149 3.0001 83.8726 3.0001 83.8302C3.0001 83.7878 3.0001 83.7454 3.0001 83.703C3.0001 83.6605 3.0001 83.618 3.0001 83.5755C3.0001 83.5329 3.0001 83.4904 3.0001 83.4477C3.0001 83.4051 3.0001 83.3625 3.0001 83.3198C3.0001 83.2771 3.0001 83.2344 3.0001 83.1917C3.0001 83.1489 3.0001 83.1061 3.0001 83.0633C3.0001 83.0204 3.0001 82.9776 3.0001 82.9347C3.0001 82.8918 3.0001 82.8488 3.0001 82.8059C3.0001 82.7629 3.0001 82.7199 3.0001 82.6768C3.0001 82.6338 3.0001 82.5907 3.0001 82.5476C3.0001 82.5045 3.0001 82.4614 3.0001 82.4182C3.0001 82.375 3.0001 82.3318 3.0001 82.2886C3.0001 82.2453 3.0001 82.202 3.0001 82.1587C3.0001 82.1154 3.0001 82.0721 3.0001 82.0287C3.0001 81.9853 3.0001 81.9419 3.0001 81.8985C3.0001 81.855 3.0001 81.8115 3.0001 81.768C3.0001 81.7245 3.0001 81.681 3.0001 81.6374C3.0001 81.5939 3.0001 81.5503 3.0001 81.5066C3.0001 81.463 3.0001 81.4193 3.0001 81.3756C3.0001 81.332 3.0001 81.2882 3.0001 81.2445C3.0001 81.2007 3.0001 81.1569 3.0001 81.1131C3.0001 81.0693 3.0001 81.0255 3.0001 80.9816C3.0001 80.9377 3.0001 80.8938 3.0001 80.8499C3.0001 80.806 3.0001 80.762 3.0001 80.7181C3.0001 80.6741 3.0001 80.6301 3.0001 80.586C3.0001 80.542 3.0001 80.4979 3.0001 80.4538C3.0001 80.4097 3.0001 80.3656 3.0001 80.3214C3.0001 80.2773 3.0001 80.2331 3.0001 80.1889C3.0001 80.1447 3.0001 80.1005 3.0001 80.0562C3.0001 80.012 3.0001 79.9677 3.0001 79.9234C3.0001 79.8791 3.0001 79.8348 3.0001 79.7904C3.0001 79.746 3.0001 79.7017 3.0001 79.6573C3.0001 79.6128 3.0001 79.5684 3.0001 79.524C3.0001 79.4795 3.0001 79.435 3.0001 79.3905C3.0001 79.346 3.0001 79.3015 3.0001 79.2569C3.0001 79.2124 3.0001 79.1678 3.0001 79.1232C3.0001 79.0786 3.0001 79.034 3.0001 78.9894C3.0001 78.9447 3.0001 78.9 3.0001 78.8554C3.0001 78.8107 3.0001 78.766 3.0001 78.7212C3.0001 78.6765 3.0001 78.6318 3.0001 78.587C3.0001 78.5422 3.0001 78.4974 3.0001 78.4526C3.0001 78.4078 3.0001 78.3629 3.0001 78.3181C3.0001 78.2732 3.0001 78.2283 3.0001 78.1834C3.0001 78.1385 3.0001 78.0936 3.0001 78.0487C3.0001 78.0038 3.0001 77.9588 3.0001 77.9138C3.0001 77.8689 3.0001 77.8239 3.0001 77.7788C3.0001 77.7338 3.0001 77.6888 3.0001 77.6437C3.0001 77.5987 3.0001 77.5536 3.0001 77.5085C3.0001 77.4635 3.0001 77.4184 3.0001 77.3732C3.0001 77.3281 3.0001 77.283 3.0001 77.2378C3.0001 77.1927 3.0001 77.1475 3.0001 77.1023C3.0001 77.0571 3.0001 77.0119 3.0001 76.9667C3.0001 76.9215 3.0001 76.8762 3.0001 76.831C3.0001 76.7857 3.0001 76.7405 3.0001 76.6952C3.0001 76.6499 3.0001 76.6046 3.0001 76.5593C3.0001 76.514 3.0001 76.4686 3.0001 76.4233C3.0001 76.3779 3.0001 76.3326 3.0001 76.2872C3.0001 76.2419 3.0001 76.1965 3.0001 76.1511C3.0001 76.1057 3.0001 76.0603 3.0001 76.0148C3.0001 75.9694 3.0001 75.924 3.0001 75.8785C3.0001 75.8331 3.0001 75.7876 3.0001 75.7421C3.0001 75.6967 3.0001 75.6512 3.0001 75.6057C3.0001 75.5602 3.0001 75.5147 3.0001 75.4691C3.0001 75.4236 3.0001 75.3781 3.0001 75.3326C3.0001 75.287 3.0001 75.2414 3.0001 75.1959C3.0001 75.1503 3.0001 75.1047 3.0001 75.0592C3.0001 75.0136 3.0001 74.968 3.0001 74.9224C3.0001 74.8768 3.0001 74.8312 3.0001 74.7855C3.0001 74.7399 3.0001 74.6943 3.0001 74.6486C3.0001 74.603 3.0001 74.5574 3.0001 74.5117C3.0001 74.466 3.0001 74.4204 3.0001 74.3747C3.0001 74.329 3.0001 74.2833 3.0001 74.2376C3.0001 74.192 3.0001 74.1463 3.0001 74.1006C3.0001 74.0549 3.0001 74.0091 3.0001 73.9634C3.0001 73.9177 3.0001 73.872 3.0001 73.8263C3.0001 73.7805 3.0001 73.7348 3.0001 73.6891C3.0001 73.6433 3.0001 73.5976 3.0001 73.5518C3.0001 73.5061 3.0001 73.4603 3.0001 73.4146C3.0001 73.3688 3.0001 73.323 3.0001 73.2773C3.0001 73.2315 3.0001 73.1857 3.0001 73.1399C3.0001 73.0942 3.0001 73.0484 3.0001 73.0026C3.0001 72.9568 3.0001 72.911 3.0001 72.8652C3.0001 72.8194 3.0001 72.7736 3.0001 72.7278C3.0001 72.682 3.0001 72.6362 3.0001 72.5904C3.0001 72.5446 3.0001 72.4988 3.0001 72.453C3.0001 72.4072 3.0001 72.3614 3.0001 72.3156C3.0001 72.2698 3.0001 72.224 3.0001 72.1782C3.0001 72.1323 3.0001 72.0865 3.0001 72.0407C3.0001 71.9949 3.0001 71.9491 3.0001 71.9033C3.0001 71.8575 3.0001 71.8117 3.0001 71.7658C3.0001 71.72 3.0001 71.6742 3.0001 71.6284C3.0001 71.5826 3.0001 71.5368 3.0001 71.491C3.0001 71.4452 3.0001 71.3994 3.0001 71.3535C3.0001 71.3077 3.0001 71.2619 3.0001 71.2161C3.0001 71.1703 3.0001 71.1245 3.0001 71.0787C3.0001 71.0329 3.0001 70.9871 3.0001 70.9413C3.0001 70.8956 3.0001 70.8498 3.0001 70.804C3.0001 70.7582 3.0001 70.7124 3.0001 70.6666C3.0001 70.6209 3.0001 70.5751 3.0001 70.5293C3.0001 70.4835 3.0001 70.4378 3.0001 70.392C3.0001 70.3463 3.0001 70.3005 3.0001 70.2548C3.0001 70.209 3.0001 70.1633 3.0001 70.1175C3.0001 70.0718 3.0001 70.026 3.0001 69.9803C3.0001 69.9346 3.0001 69.8889 3.0001 69.8431C3.0001 69.7974 3.0001 69.7517 3.0001 69.706C3.0001 69.6603 3.0001 69.6146 3.0001 69.5689C3.0001 69.5232 3.0001 69.4776 3.0001 69.4319C3.0001 69.3862 3.0001 69.3406 3.0001 69.2949C3.0001 69.2492 3.0001 69.2036 3.0001 69.158C3.0001 69.1123 3.0001 69.0667 3.0001 69.0211C3.0001 68.9754 3.0001 68.9298 3.0001 68.8842C3.0001 68.8386 3.0001 68.793 3.0001 68.7475C3.0001 68.7019 3.0001 68.6563 3.0001 68.6107C3.0001 68.5652 3.0001 68.5196 3.0001 68.4741C3.0001 68.4285 3.0001 68.383 3.0001 68.3375C3.0001 68.292 3.0001 68.2465 3.0001 68.201C3.0001 68.1555 3.0001 68.11 3.0001 68.0645C3.0001 68.019 3.0001 67.9736 3.0001 67.9281C3.0001 67.8827 3.0001 67.8372 3.0001 67.7918C3.0001 67.7464 3.0001 67.701 3.0001 67.6556C3.0001 67.6102 3.0001 67.5648 3.0001 67.5194C3.0001 67.4741 3.0001 67.4287 3.0001 67.3834C3.0001 67.338 3.0001 67.2927 3.0001 67.2474C3.0001 67.2021 3.0001 67.1568 3.0001 67.1115C3.0001 67.0662 3.0001 67.021 3.0001 66.9757C3.0001 66.9305 3.0001 66.8852 3.0001 66.84C3.0001 66.7948 3.0001 66.7496 3.0001 66.7044C3.0001 66.6592 3.0001 66.6141 3.0001 66.5689C3.0001 66.5238 3.0001 66.4786 3.0001 66.4335C3.0001 66.3884 3.0001 66.3433 3.0001 66.2982C3.0001 66.2531 3.0001 66.208 3.0001 66.163C3.0001 66.118 3.0001 66.0729 3.0001 66.0279C3.0001 65.9829 3.0001 65.9379 3.0001 65.8929C3.0001 65.848 3.0001 65.803 3.0001 65.7581C3.0001 65.7132 3.0001 65.6682 3.0001 65.6233C3.0001 65.5784 3.0001 65.5336 3.0001 65.4887C3.0001 65.4439 3.0001 65.399 3.0001 65.3542C3.0001 65.3094 3.0001 65.2646 3.0001 65.2198C3.0001 65.1751 3.0001 65.1303 3.0001 65.0856C3.0001 65.0409 3.0001 64.9962 3.0001 64.9515C3.0001 64.9068 3.0001 64.8621 3.0001 64.8175C3.0001 64.7729 3.0001 64.7282 3.0001 64.6836C3.0001 64.6391 3.0001 64.5945 3.0001 64.5499C3.0001 64.5054 3.0001 64.4609 3.0001 64.4164C3.0001 64.3719 3.0001 64.3274 3.0001 64.2829C3.0001 64.2385 3.0001 64.1941 3.0001 64.1497C3.0001 64.1053 3.0001 64.0609 3.0001 64.0165C3.0001 63.9722 3.0001 63.9278 3.0001 63.8835C3.0001 63.8392 3.0001 63.795 3.0001 63.7507C3.0001 63.7065 3.0001 63.6622 3.0001 63.618C3.0001 63.5738 3.0001 63.5297 3.0001 63.4855C3.0001 63.4414 3.0001 63.3973 3.0001 63.3532C3.0001 63.3091 3.0001 63.265 3.0001 63.221C3.0001 63.1769 3.0001 63.1329 3.0001 63.089C3.0001 63.045 3.0001 63.001 3.0001 62.9571C3.0001 62.9132 3.0001 62.8693 3.0001 62.8254C3.0001 62.7816 3.0001 62.7377 3.0001 62.6939C3.0001 62.6501 3.0001 62.6063 3.0001 62.5626C3.0001 62.5188 3.0001 62.4751 3.0001 62.4314C3.0001 62.3878 3.0001 62.3441 3.0001 62.3005C3.0001 62.2569 3.0001 62.2133 3.0001 62.1697C3.0001 62.1261 3.0001 62.0826 3.0001 62.0391C3.0001 61.9956 3.0001 61.9521 3.0001 61.9087C3.0001 61.8653 3.0001 61.8219 3.0001 61.7785C3.0001 61.7351 3.0001 61.6918 3.0001 61.6485C3.0001 61.6052 3.0001 61.5619 3.0001 61.5187C3.0001 61.4754 3.0001 61.4322 3.0001 61.389C3.0001 61.3459 3.0001 61.3027 3.0001 61.2596C3.0001 61.2165 3.0001 61.1734 3.0001 61.1304C3.0001 61.0874 3.0001 61.0444 3.0001 61.0014C3.0001 60.9584 3.0001 60.9155 3.0001 60.8726C3.0001 60.8297 3.0001 60.7869 3.0001 60.744C3.0001 60.7012 3.0001 60.6584 3.0001 60.6157C3.0001 60.5729 3.0001 60.5302 3.0001 60.4875C3.0001 60.4449 3.0001 60.4022 3.0001 60.3596C3.0001 60.317 3.0001 60.2744 3.0001 60.2319C3.0001 60.1894 3.0001 60.1469 3.0001 60.1044C3.0001 60.062 3.0001 60.0196 3.0001 59.9772C3.0001 59.9348 3.0001 59.8925 3.0001 59.8502C3.0001 59.8079 3.0001 59.7656 3.0001 59.7234C3.0001 59.6812 3.0001 59.639 3.0001 59.5969C3.0001 59.5547 3.0001 59.5126 3.0001 59.4706C3.0001 59.4285 3.0001 59.3865 3.0001 59.3445C3.0001 59.3025 3.0001 59.2606 3.0001 59.2187C3.0001 59.1768 3.0001 59.135 3.0001 59.0931C3.0001 59.0513 3.0001 59.0096 3.0001 58.9678C3.0001 58.9261 3.0001 58.8844 3.0001 58.8428C3.0001 58.8011 3.0001 58.7595 3.0001 58.718C3.0001 58.6764 3.0001 58.6349 3.0001 58.5934C3.0001 58.5519 3.0001 58.5105 3.0001 58.4691C3.0001 58.4277 3.0001 58.3864 3.0001 58.3451C3.0001 58.3038 3.0001 58.2625 3.0001 58.2213C3.0001 58.1801 3.0001 58.139 3.0001 58.0978C3.0001 58.0567 3.0001 58.0156 3.0001 57.9746C3.0001 57.9336 3.0001 57.8926 3.0001 57.8517C3.0001 57.8107 3.0001 57.7698 3.0001 57.729C3.0001 57.6881 3.0001 57.6473 3.0001 57.6066C3.0001 57.5658 3.0001 57.5251 3.0001 57.4845C3.0001 57.4438 3.0001 57.4032 3.0001 57.3626C3.0001 57.3221 3.0001 57.2816 3.0001 57.2411C3.0001 57.2006 3.0001 57.1602 3.0001 57.1198C3.0001 57.0795 3.0001 57.0392 3.0001 56.9989C3.0001 56.9586 3.0001 56.9184 3.0001 56.8782C3.0001 56.838 3.0001 56.7979 3.0001 56.7578C3.0001 56.7178 3.0001 56.6777 3.0001 56.6378C3.0001 56.5978 3.0001 56.5579 3.0001 56.518C3.0001 56.4781 3.0001 56.4383 3.0001 56.3985C3.0001 56.3587 3.0001 56.319 3.0001 56.2794C3.0001 56.2397 3.0001 56.2001 3.0001 56.1605C3.0001 56.1209 3.0001 56.0814 3.0001 56.042C3.0001 56.0025 3.0001 55.9631 3.0001 55.9238C3.0001 55.8844 3.0001 55.8451 3.0001 55.8058C3.0001 55.7666 3.0001 55.7274 3.0001 55.6883C3.0001 55.6491 3.0001 55.61 3.0001 55.571C3.0001 55.532 3.0001 55.493 3.0001 55.4541C3.0001 55.4151 3.0001 55.3763 3.0001 55.3374C3.0001 55.2986 3.0001 55.2599 3.0001 55.2212C3.0001 55.1825 3.0001 55.1438 3.0001 55.1052C3.0001 55.0666 3.0001 55.0281 3.0001 54.9896C3.0001 54.9511 3.0001 54.9127 3.0001 54.8743C3.0001 54.836 3.0001 54.7977 3.0001 54.7594C3.0001 54.7212 3.0001 54.683 3.0001 54.6448C3.0001 54.6067 3.0001 54.5686 3.0001 54.5306C3.0001 54.4926 3.0001 54.4546 3.0001 54.4167C3.0001 54.3788 3.0001 54.3409 3.0001 54.3031C3.0001 54.2654 3.0001 54.2276 3.0001 54.19C3.0001 54.1523 3.0001 54.1147 3.0001 54.0771C3.0001 54.0396 3.0001 54.0021 3.0001 53.9647C3.0001 53.9272 3.0001 53.8899 3.0001 53.8526C3.0001 53.8152 3.0001 53.778 3.0001 53.7408C3.0001 53.7036 3.0001 53.6665 3.0001 53.6294C3.0001 53.5924 3.0001 53.5554 3.0001 53.5184C3.0001 53.4815 3.0001 53.4446 3.0001 53.4078C3.0001 53.371 3.0001 53.3342 3.0001 53.2975C3.0001 53.2608 3.0001 53.2242 3.0001 53.1876C3.0001 53.1511 3.0001 53.1146 3.0001 53.0781C3.0001 53.0417 3.0001 53.0053 3.0001 52.969C3.0001 52.9327 3.0001 52.8965 3.0001 52.8603C3.0001 52.8241 3.0001 52.788 3.0001 52.7519C3.0001 52.7159 3.0001 52.6799 3.0001 52.644C3.0001 52.608 3.0001 52.5722 3.0001 52.5364C3.0001 52.5006 3.0001 52.4649 3.0001 52.4292C3.0001 52.3936 3.0001 52.358 3.0001 52.3225C3.0001 52.2869 3.0001 52.2515 3.0001 52.2161C3.0001 52.1807 3.0001 52.1454 3.0001 52.1101C3.0001 52.0749 3.0001 52.0397 3.0001 52.0046C3.0001 51.9694 3.0001 51.9344 3.0001 51.8994C3.0001 51.8644 3.0001 51.8295 3.0001 51.7947C3.0001 51.7598 3.0001 51.725 3.0001 51.6903C3.0001 51.6556 3.0001 51.621 3.0001 51.5864C3.0001 51.5518 3.0001 51.5173 3.0001 51.4829C3.0001 51.4485 3.0001 51.4141 3.0001 51.3799C3.0001 51.3456 3.0001 51.3113 3.0001 51.2772C3.0001 51.2431 3.0001 51.209 3.0001 51.175C3.0001 51.141 3.0001 51.1071 3.0001 51.0732C3.0001 51.0393 3.0001 51.0055 3.0001 50.9718C3.0001 50.9381 3.0001 50.9045 3.0001 50.8709C3.0001 50.8373 3.0001 50.8038 3.0001 50.7704C3.0001 50.737 3.0001 50.7037 3.0001 50.6704C3.0001 50.6371 3.0001 50.6039 3.0001 50.5708C3.0001 50.5376 3.0001 50.5046 3.0001 50.4716C3.0001 50.4386 3.0001 50.4057 3.0001 50.3729C3.0001 50.3401 3.0001 50.3073 3.0001 50.2746C3.0001 50.242 3.0001 50.2094 3.0001 50.1768C3.0001 50.1443 3.0001 50.1118 3.0001 50.0795C3.0001 50.0471 3.0001 50.0148 3.0001 49.9826C3.0001 49.9504 3.0001 49.9182 3.0001 49.8861C3.0001 49.8541 3.0001 49.8221 3.0001 49.7902C3.0001 49.7583 3.0001 49.7264 3.0001 49.6947C3.0001 49.6629 3.0001 49.6312 3.0001 49.5996C3.0001 49.568 3.0001 49.5365 3.0001 49.5051C3.0001 49.4736 3.0001 49.4422 3.0001 49.411C3.0001 49.3797 3.0001 49.3485 3.0001 49.3173C3.0001 49.2862 3.0001 49.2552 3.0001 49.2242C3.0001 49.1932 3.0001 49.1624 3.0001 49.1316C3.0001 49.1007 3.0001 49.07 3.0001 49.0394C3.0001 49.0087 3.0001 48.9782 3.0001 48.9477C3.0001 48.9172 3.0001 48.8868 3.0001 48.8565C3.0001 48.8262 3.0001 48.7959 3.0001 48.7658C3.0001 48.7356 3.0001 48.7056 3.0001 48.6756C3.0001 48.6456 3.0001 48.6157 3.0001 48.5859C3.0001 48.556 3.0001 48.5263 3.0001 48.4967C3.0001 48.467 3.0001 48.4374 3.0001 48.4079C3.0001 48.3785 3.0001 48.3491 3.0001 48.3197C3.0001 48.2904 3.0001 48.2612 3.0001 48.232C3.0001 48.2029 3.0001 48.1738 3.0001 48.1448C3.0001 48.1159 3.0001 48.087 3.0001 48.0582C3.0001 48.0294 3.0001 48.0006 3.0001 47.972C3.0001 47.9434 3.0001 47.9148 3.0001 47.8864C3.0001 47.8579 3.0001 47.8295 3.0001 47.8012C3.0001 47.773 3.0001 47.7448 3.0001 47.7166C3.0001 47.6885 3.0001 47.6605 3.0001 47.6326C3.0001 47.6046 3.0001 47.5768 3.0001 47.549C3.0001 47.5213 3.0001 47.4936 3.0001 47.466C3.0001 47.4384 3.0001 47.4109 3.0001 47.3835C3.0001 47.3561 3.0001 47.3288 3.0001 47.3016C3.0001 47.2744 3.0001 47.2472 3.0001 47.2202C3.0001 47.1931 3.0001 47.1662 3.0001 47.1393C3.0001 47.1124 3.0001 47.0857 3.0001 47.059C3.0001 47.0323 3.0001 47.0057 3.0001 46.9792C3.0001 46.9527 3.0001 46.9263 3.0001 46.9C3.0001 46.8737 3.0001 46.8474 3.0001 46.8213C3.0001 46.7952 3.0001 46.7691 3.0001 46.7432C3.0001 46.7172 3.0001 46.6914 3.0001 46.6656C3.0001 46.6399 3.0001 46.6142 3.0001 46.5886C3.0001 46.563 3.0001 46.5376 3.0001 46.5122C3.0001 46.4868 3.0001 46.4615 3.0001 46.4363C3.0001 46.4111 3.0001 46.386 3.0001 46.361C3.0001 46.336 3.0001 46.3111 3.0001 46.2863C3.0001 46.2614 3.0001 46.2367 3.0001 46.2121C3.0001 46.1875 3.0001 46.1629 3.0001 46.1385C3.0001 46.1141 3.0001 46.0897 3.0001 46.0655C3.0001 46.0412 3.0001 46.0171 3.0001 45.993C3.0001 45.969 3.0001 45.945 3.0001 45.9212C3.0001 45.8973 3.0001 45.8736 3.0001 45.8499C3.0001 45.8263 3.0001 45.8027 3.0001 45.7793C3.0001 45.7558 3.0001 45.7324 3.0001 45.7092C3.0001 45.6859 3.0001 45.6627 3.0001 45.6397C3.0001 45.6166 3.0001 45.5936 3.0001 45.5708C3.0001 45.5479 3.0001 45.5251 3.0001 45.5025C3.0001 45.4798 3.0001 45.4572 3.0001 45.4348C3.0001 45.4123 3.0001 45.3899 3.0001 45.3677C3.0001 45.3454 3.0001 45.3233 3.0001 45.3012C3.0001 45.2791 3.0001 45.2572 3.0001 45.2353C3.0001 45.2135 3.0001 45.1917 3.0001 45.17C3.0001 45.1484 3.0001 45.1268 3.0001 45.1054C3.0001 45.0839 3.0001 45.0626 3.0001 45.0414C3.0001 45.0201 3.0001 44.999 3.0001 44.9779C3.0001 44.9569 3.0001 44.936 3.0001 44.9151C3.0001 44.8943 3.0001 44.8736 3.0001 44.853C3.0001 44.8323 3.0001 44.8118 3.0001 44.7914C3.0001 44.771 3.0001 44.7507 3.0001 44.7305C3.0001 44.7103 3.0001 44.6902 3.0001 44.6702C3.0001 44.6502 3.0001 44.6304 3.0001 44.6106C3.0001 44.5908 3.0001 44.5711 3.0001 44.5516C3.0001 44.532 3.0001 44.5126 3.0001 44.4932C3.0001 44.4739 3.0001 44.4546 3.0001 44.4355C3.0001 44.4163 3.0001 44.3973 3.0001 44.3784C3.0001 44.3595 3.0001 44.3407 3.0001 44.322C3.0001 44.3033 3.0001 44.2847 3.0001 44.2662C3.0001 44.2477 3.0001 44.2293 3.0001 44.211C3.0001 44.1928 3.0001 44.1746 3.0001 44.1566C3.0001 44.1385 3.0001 44.1206 3.0001 44.1028C3.0001 44.0849 3.0001 44.0672 3.0001 44.0496C3.0001 44.032 3.0001 44.0145 3.0001 43.9971C3.0001 43.9797 3.0001 43.9625 3.0001 43.9453C3.0001 43.9281 3.0001 43.9111 3.0001 43.8941C3.0001 43.8772 3.0001 43.8604 3.0001 43.8436C3.0001 43.8269 3.0001 43.8103 3.0001 43.7938C3.0001 43.7773 3.0001 43.761 3.0001 43.7447C3.0001 43.7284 3.0001 43.7123 3.0001 43.6962C3.0001 43.6802 3.0001 43.6643 3.0001 43.6485C3.0001 43.6327 3.0001 43.617 3.0001 43.6014C3.0001 43.5858 3.0001 43.5703 3.0001 43.555C3.0001 43.5396 3.0001 43.5244 3.0001 43.5093C3.0001 43.4941 3.0001 43.4791 3.0001 43.4643C3.0001 43.4494 3.0001 43.4346 3.0001 43.4199C3.0001 43.4053 3.0001 43.3907 3.0001 43.3763C3.0001 43.3619 3.0001 43.3476 3.0001 43.3334C3.0001 43.3192 3.0001 43.3051 3.0001 43.2911C3.0001 43.2772 3.0001 43.2633 3.0001 43.2496C3.0001 43.2359 3.0001 43.2223 3.0001 43.2088C3.0001 43.1953 3.0001 43.182 3.0001 43.1687C3.0001 43.1555 3.0001 43.1423 3.0001 43.1293C3.0001 43.1163 3.0001 43.1034 3.0001 43.0906C3.0001 43.0779 3.0001 43.0652 3.0001 43.0527C3.0001 43.0402 3.0001 43.0277 3.0001 43.0155C3.0001 43.0032 3.0001 42.991 3.0001 42.9789C3.0001 42.9669 3.0001 42.955 3.0001 42.9432C3.0001 42.9314 3.0001 42.9197 3.0001 42.9081C3.0001 42.8965 3.0001 42.8851 3.0001 42.8738C3.0001 42.8625 3.0001 42.8513 3.0001 42.8402C3.0001 42.8291 3.0001 42.8182 3.0001 42.8073C3.0001 42.7965 3.0001 42.7858 3.0001 42.7752C3.0001 42.7646 3.0001 42.7542 3.0001 42.7438C3.0001 42.7335 3.0001 42.7233 3.0001 42.7132C3.0001 42.7031 3.0001 42.6932 3.0001 42.6833C3.0001 42.6735 3.0001 42.6638 3.0001 42.6542C3.0001 42.6446 3.0001 42.6351 3.0001 42.6258C3.0001 42.6165 3.0001 42.6073 3.0001 42.5982C3.0001 42.5891 3.0001 42.5801 3.0001 42.5713C3.0001 42.5625 3.0001 42.5538 3.0001 42.5452C3.0001 42.5366 3.0001 42.5282 3.0001 42.5199C3.0001 42.5115 3.0001 42.5033 3.0001 42.4953C3.0001 42.4872 3.0001 42.4793 3.0001 42.4715C3.0001 42.4636 3.0001 42.456 3.0001 42.4484C3.0001 42.4409 3.0001 42.4334 3.0001 42.4261C3.0001 42.4188 3.0001 42.4117 3.0001 42.4046C3.0001 42.3976 3.0001 42.3907 3.0001 42.3839C3.0001 42.3771 3.0001 42.3705 3.0001 42.364C3.0001 42.3575 3.0001 42.3511 3.0001 42.3448C3.0001 42.3386 3.0001 42.3325 3.0001 42.3265C3.0001 42.3205 3.0001 42.3146 3.0001 42.3089C3.0001 42.3032 3.0001 42.2976 3.0001 42.2921C3.0001 42.2866 3.0001 42.2813 3.0001 42.2761C3.0001 42.2709 3.0001 42.2658 3.0001 42.2609C3.0001 42.256 3.0001 42.2512 3.0001 42.2465C3.0001 42.2418 3.0001 42.2373 3.0001 42.2329C3.0001 42.2285 3.0001 42.2242 3.0001 42.2201C3.0001 42.216 3.0001 42.212 3.0001 42.2081C3.0001 42.2043 3.0001 42.2005 3.0001 42.1969C3.0001 42.1933 3.0001 42.1899 3.0001 42.1866C3.0001 42.1832 3.0001 42.1801 3.0001 42.177C3.0001 42.174 3.0001 42.1711 3.0001 42.1683C3.0001 42.1655 3.0001 42.1629 3.0001 42.1604C3.0001 42.1579 3.0001 42.1555 3.0001 42.1533C3.0001 42.151 3.0001 42.1489 3.0001 42.147C3.0001 42.145 3.0001 42.1432 3.0001 42.1416C3.0001 42.1399 3.0001 42.1383 3.0001 42.1369C3.0001 42.1355 3.0001 42.1343 3.0001 42.1332C3.0001 42.132 3.0001 42.1311 3.0001 42.1302C3.0001 42.1294 3.0001 42.1287 3.0001 42.1281C3.0001 42.1276 3.0001 42.1271 3.0001 42.1268C3.0001 42.1266 3.0001 42.1264 9.82296e-05 42.1264ZM-2.9999 94.768C-3.05482 149.686 19.5875 180.418 42.6372 197.334C65.4937 214.109 88.5083 217.133 89.4168 217.187L89.7691 211.197C89.8718 211.203 84.414 210.546 76.1265 207.829C67.8995 205.132 57.0218 200.449 46.1872 192.497C24.6428 176.686 2.94714 147.734 3.0001 94.774L-2.9999 94.768ZM89.3213 217.18C89.9088 217.233 90.6809 217.3 91.4268 217.3V211.3C90.9861 211.3 90.4637 211.259 89.8645 211.204L89.3213 217.18ZM91.4268 217.3C92.1756 217.3 92.9446 217.233 93.5054 217.177L92.9083 211.207C92.3903 211.259 91.8647 211.3 91.4268 211.3V217.3ZM93.5574 217.172C94.267 217.088 117.275 214.104 140.163 197.307C163.213 180.391 185.855 149.658 185.8 94.714L179.8 94.72C179.853 147.708 158.157 176.659 136.613 192.47C125.778 200.422 114.9 205.106 106.672 207.806C102.562 209.155 99.1245 210.005 96.7014 210.52C95.4903 210.777 94.5339 210.95 93.8752 211.059C93.5458 211.113 93.2912 211.152 93.1168 211.177C92.9372 211.203 92.8504 211.213 92.8563 211.213L93.5574 217.172ZM185.8 94.7067C185.746 79.1248 185.8 42.5701 185.8 42.1264H179.8C179.8 42.5458 179.746 79.1325 179.8 94.7274L185.8 94.7067ZM43.1257 112.742L71.4976 141.33L75.7563 137.104L47.3843 108.516L43.1257 112.742ZM71.5056 141.338C73.0199 142.852 75.2861 144.07 77.8401 143.881L77.3968 137.897C77.0381 137.924 76.3916 137.739 75.7483 137.095L71.5056 141.338ZM77.6184 143.889C79.9007 143.889 82.1599 142.994 83.7849 141.283L79.4349 137.151C79.0103 137.598 78.3568 137.889 77.6184 137.889V143.889ZM83.7353 141.334L139.67 85.1834L135.419 80.949L79.4845 137.1L83.7353 141.334Z" fill="white" fill-opacity="0.15" mask="url(#path-1-inside-1)"/>
</g>
<defs>
<filter id="filter0_b" x="-20" y="-20" width="222.8" height="254.3" filterUnits="userSpaceOnUse" color-interpolation-filters="sRGB">
<feFlood flood-opacity="0" result="BackgroundImageFix"/>
<feGaussianBlur in="BackgroundImage" stdDeviation="10"/>
<feComposite in2="SourceAlpha" operator="in" result="effect1_backgroundBlur"/>
<feBlend mode="normal" in="SourceGraphic" in2="effect1_backgroundBlur" result="shape"/>
</filter>
</defs>
</svg>
