<svg width="208" height="218" viewBox="0 0 208 218" fill="none" xmlns="http://www.w3.org/2000/svg">
<g filter="url(#filter0_b)">
<path d="M104 127.268C116.848 127.268 127.264 116.852 127.264 104.004C127.264 91.155 116.848 80.739 104 80.739C91.1514 80.739 80.7358 91.155 80.7358 104.004C80.7358 116.852 91.1514 127.268 104 127.268Z" fill="white" fill-opacity="0.1"/>
<path d="M125.764 104.004C125.764 116.024 116.02 125.768 104 125.768C91.9799 125.768 82.2358 116.024 82.2358 104.004C82.2358 91.9834 91.9799 82.239 104 82.239C116.02 82.239 125.764 91.9834 125.764 104.004Z" stroke="white" stroke-opacity="0.15" stroke-width="3"/>
<mask id="path-3-inside-1" fill="white">
<path d="M72.4314 145.033C60.112 135.573 52.1924 120.724 52.1924 104.004C52.1924 75.4041 75.3463 52.2494 103.945 52.2494C132.544 52.2494 155.697 75.4041 155.697 104.004C155.697 120.669 147.833 135.463 135.623 144.923"/>
</mask>
<path d="M72.4314 145.033C60.112 135.573 52.1924 120.724 52.1924 104.004C52.1924 75.4041 75.3463 52.2494 103.945 52.2494C132.544 52.2494 155.697 75.4041 155.697 104.004C155.697 120.669 147.833 135.463 135.623 144.923" fill="white" fill-opacity="0.1"/>
<path d="M74.2585 142.654C62.6471 133.738 55.1924 119.752 55.1924 104.004H49.1924C49.1924 121.695 57.5769 137.409 70.6043 147.413L74.2585 142.654ZM55.1924 104.004C55.1924 77.0609 77.0032 55.2494 103.945 55.2494V49.2494C73.6893 49.2494 49.1924 73.7474 49.1924 104.004H55.1924ZM103.945 55.2494C130.887 55.2494 152.697 77.0609 152.697 104.004H158.697C158.697 73.7474 134.2 49.2494 103.945 49.2494V55.2494ZM152.697 104.004C152.697 119.701 145.294 133.635 133.786 142.552L137.461 147.295C150.372 137.291 158.697 121.636 158.697 104.004H152.697Z" fill="white" fill-opacity="0.15" mask="url(#path-3-inside-1)"/>
<mask id="path-5-inside-2" fill="white">
<path d="M55.6574 162.743C38.7183 148.773 27.8838 127.654 27.8838 103.949C27.8838 61.9294 61.9271 27.8848 103.945 27.8848C145.963 27.8848 180.006 61.9294 180.006 103.949C180.006 125.949 170.657 145.803 155.698 159.718"/>
</mask>
<path d="M55.6574 162.743C38.7183 148.773 27.8838 127.654 27.8838 103.949C27.8838 61.9294 61.9271 27.8848 103.945 27.8848C145.963 27.8848 180.006 61.9294 180.006 103.949C180.006 125.949 170.657 145.803 155.698 159.718" fill="white" fill-opacity="0.1"/>
<path d="M57.5662 160.429C41.2854 147.002 30.8838 126.716 30.8838 103.949H24.8838C24.8838 128.591 36.1511 150.545 53.7487 165.058L57.5662 160.429ZM30.8838 103.949C30.8838 63.5861 63.5841 30.8848 103.945 30.8848V24.8848C60.2702 24.8848 24.8838 60.2726 24.8838 103.949H30.8838ZM103.945 30.8848C144.306 30.8848 177.006 63.5861 177.006 103.949H183.006C183.006 60.2726 147.62 24.8848 103.945 24.8848V30.8848ZM177.006 103.949C177.006 125.081 168.029 144.15 153.654 157.522L157.741 161.915C173.285 147.456 183.006 126.816 183.006 103.949H177.006Z" fill="white" fill-opacity="0.15" mask="url(#path-5-inside-2)"/>
<mask id="path-7-inside-3" fill="white">
<path d="M35.9133 182.598C13.9143 163.568 0 135.408 0 104.004C0 46.5294 46.5278 0 104 0C161.472 0 208 46.5294 208 104.004C208 135.188 194.306 163.128 172.527 182.213"/>
</mask>
<path d="M35.9133 182.598C13.9143 163.568 0 135.408 0 104.004C0 46.5294 46.5278 0 104 0C161.472 0 208 46.5294 208 104.004C208 135.188 194.306 163.128 172.527 182.213" fill="white" fill-opacity="0.1"/>
<path d="M37.8759 180.329C16.5093 161.846 3 134.503 3 104.004H-3C-3 136.314 11.3193 165.29 33.9506 184.867L37.8759 180.329ZM3 104.004C3 48.1862 48.1847 3 104 3V-3C44.8708 -3 -3 44.8727 -3 104.004H3ZM104 3C159.815 3 205 48.1862 205 104.004H211C211 44.8727 163.129 -3 104 -3V3ZM205 104.004C205 134.289 191.706 161.418 170.55 179.956L174.504 184.469C196.906 164.838 211 136.088 211 104.004H205Z" fill="white" fill-opacity="0.15" mask="url(#path-7-inside-3)"/>
<path d="M104 127.269V217.577" stroke="white" stroke-opacity="0.15" stroke-width="3"/>
</g>
<defs>
<filter id="filter0_b" x="-20" y="-20" width="248" height="257.577" filterUnits="userSpaceOnUse" color-interpolation-filters="sRGB">
<feFlood flood-opacity="0" result="BackgroundImageFix"/>
<feGaussianBlur in="BackgroundImage" stdDeviation="10"/>
<feComposite in2="SourceAlpha" operator="in" result="effect1_backgroundBlur"/>
<feBlend mode="normal" in="SourceGraphic" in2="effect1_backgroundBlur" result="shape"/>
</filter>
</defs>
</svg>
