<svg width="244" height="242" viewBox="0 0 244 242" fill="none" xmlns="http://www.w3.org/2000/svg">
<g filter="url(#filter0_b)">
<mask id="path-1-inside-1" fill="white">
<path d="M52.4902 199.763V123.937C52.4902 86.5639 82.7846 56.2695 120.158 56.2695C157.531 56.2695 187.825 86.5639 187.825 123.937V199.763"/>
</mask>
<path d="M52.4902 199.763V123.937C52.4902 86.5639 82.7846 56.2695 120.158 56.2695C157.531 56.2695 187.825 86.5639 187.825 123.937V199.763" fill="white" fill-opacity="0.1"/>
<path d="M55.4902 199.763V123.937H49.4902V199.763H55.4902ZM55.4902 123.937C55.4902 88.2207 84.4414 59.2695 120.158 59.2695V53.2695C81.1277 53.2695 49.4902 84.907 49.4902 123.937H55.4902ZM120.158 59.2695C155.874 59.2695 184.825 88.2207 184.825 123.937H190.825C190.825 84.907 159.187 53.2695 120.158 53.2695V59.2695ZM184.825 123.937V199.763H190.825V123.937H184.825Z" fill="white" fill-opacity="0.15" mask="url(#path-1-inside-1)"/>
<path d="M74.5061 128.736C72.5264 128.736 70.9067 127.116 70.9067 125.137C70.9067 103.181 84.8841 83.7444 105.64 76.7257C107.5 76.0658 109.54 77.0856 110.199 79.0053C110.859 80.8649 109.839 82.9045 107.92 83.5644C90.1032 89.6233 78.1054 106.3 78.1054 125.197C78.1054 127.176 76.4857 128.736 74.5061 128.736Z" fill="white" fill-opacity="0.1"/>
<path d="M106.121 78.1466L106.131 78.1431L106.142 78.1393C107.177 77.7719 108.379 78.3235 108.781 79.4929L108.783 79.4999L108.786 79.5069C109.153 80.5417 108.602 81.7424 107.434 82.1451C89.0124 88.411 76.6054 105.657 76.6054 125.197C76.6054 126.315 75.6903 127.236 74.5061 127.236C73.3549 127.236 72.4067 126.288 72.4067 125.137C72.4067 103.825 85.9733 84.9595 106.121 78.1466Z" stroke="white" stroke-opacity="0.15" stroke-width="3"/>
<path d="M209.121 241.275H33.3538C28.2547 241.275 24.1155 237.136 24.1155 232.037V209.001C24.1155 203.902 28.2547 199.763 33.3538 199.763H209.121C214.22 199.763 218.359 203.902 218.359 209.001V232.037C218.359 237.136 214.22 241.275 209.121 241.275Z" fill="white" fill-opacity="0.1"/>
<path d="M209.121 239.775H33.3538C29.0831 239.775 25.6155 236.307 25.6155 232.037V209.001C25.6155 204.73 29.0831 201.263 33.3538 201.263H209.121C213.392 201.263 216.859 204.73 216.859 209.001V232.037C216.859 236.307 213.392 239.775 209.121 239.775Z" stroke="white" stroke-opacity="0.15" stroke-width="3"/>
<path d="M52.4902 172.648H187.885" stroke="white" stroke-opacity="0.15" stroke-width="3"/>
<path d="M120.818 81.4648C122.805 81.4648 124.417 79.8533 124.417 77.8654C124.417 75.8776 122.805 74.2661 120.818 74.2661C118.83 74.2661 117.218 75.8776 117.218 77.8654C117.218 79.8533 118.83 81.4648 120.818 81.4648Z" fill="white" fill-opacity="0.1"/>
<path d="M122.917 77.8654C122.917 79.0249 121.977 79.9648 120.818 79.9648C119.658 79.9648 118.718 79.0249 118.718 77.8654C118.718 76.706 119.658 75.7661 120.818 75.7661C121.977 75.7661 122.917 76.706 122.917 77.8654Z" stroke="white" stroke-opacity="0.15" stroke-width="3"/>
<path d="M0 131.615H27.2949" stroke="white" stroke-opacity="0.15" stroke-width="3"/>
<path d="M215.78 131.615H243.074" stroke="white" stroke-opacity="0.15" stroke-width="3"/>
<path d="M120.218 0V27.2949" stroke="white" stroke-opacity="0.15" stroke-width="3"/>
<path d="M186.565 15.0573L174.927 39.8326" stroke="white" stroke-opacity="0.15" stroke-width="3"/>
<path d="M52.6702 15.0573L64.308 39.8326" stroke="white" stroke-opacity="0.15" stroke-width="3"/>
<path d="M13.4973 64.9679L36.413 79.8451" stroke="white" stroke-opacity="0.15" stroke-width="3"/>
<path d="M229.937 64.9679L207.081 79.8451" stroke="white" stroke-opacity="0.15" stroke-width="3"/>
</g>
<defs>
<filter id="filter0_b" x="-20" y="-20" width="283.074" height="281.275" filterUnits="userSpaceOnUse" color-interpolation-filters="sRGB">
<feFlood flood-opacity="0" result="BackgroundImageFix"/>
<feGaussianBlur in="BackgroundImage" stdDeviation="10"/>
<feComposite in2="SourceAlpha" operator="in" result="effect1_backgroundBlur"/>
<feBlend mode="normal" in="SourceGraphic" in2="effect1_backgroundBlur" result="shape"/>
</filter>
</defs>
</svg>
