<svg width="32" height="33" viewBox="0 0 32 33" fill="none" xmlns="http://www.w3.org/2000/svg">
<path d="M5.97242 23.5264C5.00798 23.8083 3.90576 24.5132 3.07909 25.359C2.25242 26.2048 1.70131 27.1916 1.28798 28.3193C1.01242 29.3061 0.874646 30.4339 1.1502 31.4206C2.11465 31.7026 3.07909 31.5616 4.18131 31.2797C5.14576 30.9977 6.24798 30.2929 7.07465 29.4471C7.90131 28.6013 8.45242 27.6145 8.86576 26.4867" stroke="white" stroke-width="2" stroke-miterlimit="10" stroke-linecap="round" stroke-linejoin="round"/>
<path d="M5.97252 14.3634L2.11475 18.3106H5.97252C9.41697 19.7203 12.1725 22.2577 13.8259 26.3458V30.293L17.6836 26.3458L15.7547 20.4251C20.4392 20.1432 24.4347 18.3106 27.4659 14.5044C30.2214 10.5573 31.1859 6.18722 30.3592 1.53524C25.537 0.26652 21.2659 1.2533 17.6836 4.49559C14.2392 8.16079 12.3103 12.2489 11.897 16.478L5.97252 14.3634Z" stroke="white" stroke-width="2" stroke-miterlimit="10" stroke-linecap="round" stroke-linejoin="round"/>
<path d="M23.6081 11.2621C25.1299 11.2621 26.3637 9.99978 26.3637 8.44267C26.3637 6.88557 25.1299 5.62329 23.6081 5.62329C22.0862 5.62329 20.8525 6.88557 20.8525 8.44267C20.8525 9.99978 22.0862 11.2621 23.6081 11.2621Z" stroke="white" stroke-width="2" stroke-miterlimit="10" stroke-linecap="round" stroke-linejoin="round"/>
</svg>
