<svg width="39" height="33" viewBox="0 0 39 33" fill="none" xmlns="http://www.w3.org/2000/svg">
<path d="M16.7318 18.4973C15.287 18.8184 14.0028 19.2999 12.8792 20.1026" stroke="white" stroke-width="2" stroke-miterlimit="10" stroke-linecap="round" stroke-linejoin="round"/>
<path d="M26.2027 20.1026C25.079 19.2999 23.6343 18.8184 22.3501 18.4973" stroke="white" stroke-width="2" stroke-miterlimit="10" stroke-linecap="round" stroke-linejoin="round"/>
<path d="M31.6607 27.9684C31.3396 26.5236 30.8581 25.2394 30.0554 24.1157" stroke="white" stroke-width="2" stroke-miterlimit="10" stroke-linecap="round" stroke-linejoin="round"/>
<path d="M8.86601 23.9553C8.06337 25.079 7.58179 26.5237 7.26074 27.808" stroke="white" stroke-width="2" stroke-miterlimit="10" stroke-linecap="round" stroke-linejoin="round"/>
<path d="M25.7212 31.4999C25.7212 31.1789 25.7212 31.0183 25.7212 30.6973C25.7212 27.1657 22.9923 24.4368 19.4607 24.4368C15.9291 24.4368 13.2002 27.1657 13.2002 30.6973C13.2002 31.0183 13.2002 31.1789 13.2002 31.4999" stroke="white" stroke-width="2" stroke-miterlimit="10" stroke-linecap="round" stroke-linejoin="round"/>
<path d="M16.7317 18.4974V14.6448H22.1896V18.4974" stroke="white" stroke-width="2" stroke-miterlimit="10" stroke-linecap="round" stroke-linejoin="round"/>
<path d="M26.2026 20.1025L28.7711 17.3735L32.7842 21.3867L30.0553 23.9551" stroke="white" stroke-width="2" stroke-miterlimit="10" stroke-linecap="round" stroke-linejoin="round"/>
<path d="M31.6606 27.9685H35.5133V31.5001" stroke="white" stroke-width="2" stroke-miterlimit="10" stroke-linecap="round" stroke-linejoin="round"/>
<path d="M3.40796 31.5001V27.9685H7.26059" stroke="white" stroke-width="2" stroke-miterlimit="10" stroke-linecap="round" stroke-linejoin="round"/>
<path d="M8.86591 23.9551L6.13696 21.3867L10.1501 17.3735L12.7185 20.1025" stroke="white" stroke-width="2" stroke-miterlimit="10" stroke-linecap="round" stroke-linejoin="round"/>
<path d="M36.3158 31.5H2.60526C1.64211 31.5 1 30.8579 1 29.8947V1H37.9211V29.8947C37.9211 30.8579 37.2789 31.5 36.3158 31.5Z" stroke="white" stroke-width="2" stroke-miterlimit="10" stroke-linecap="round" stroke-linejoin="round"/>
<path d="M1 7.42114H37.9211" stroke="white" stroke-width="2" stroke-miterlimit="10" stroke-linecap="round" stroke-linejoin="round"/>
<path d="M5.81582 5.01322C6.2591 5.01322 6.61845 4.65387 6.61845 4.21059C6.61845 3.76731 6.2591 3.40796 5.81582 3.40796C5.37253 3.40796 5.01318 3.76731 5.01318 4.21059C5.01318 4.65387 5.37253 5.01322 5.81582 5.01322Z" fill="white"/>
<path d="M9.02626 5.01322C9.46955 5.01322 9.8289 4.65387 9.8289 4.21059C9.8289 3.76731 9.46955 3.40796 9.02626 3.40796C8.58298 3.40796 8.22363 3.76731 8.22363 4.21059C8.22363 4.65387 8.58298 5.01322 9.02626 5.01322Z" fill="white"/>
<path d="M12.237 5.01322C12.6802 5.01322 13.0396 4.65387 13.0396 4.21059C13.0396 3.76731 12.6802 3.40796 12.237 3.40796C11.7937 3.40796 11.4343 3.76731 11.4343 4.21059C11.4343 4.65387 11.7937 5.01322 12.237 5.01322Z" fill="white"/>
</svg>
