<svg width="26" height="31" viewBox="0 0 26 31" fill="none" xmlns="http://www.w3.org/2000/svg">
<path d="M1 3.49199V1H24.6739V3.49199" stroke="white" stroke-width="2" stroke-miterlimit="10" stroke-linecap="round" stroke-linejoin="round"/>
<path d="M24.6739 27.1659V29.6579H1V27.1659" stroke="white" stroke-width="2" stroke-miterlimit="10" stroke-linecap="round" stroke-linejoin="round"/>
<path d="M21.5589 27.166C21.5589 24.7986 21.3097 22.805 19.5653 21.0606C17.8209 19.3162 13.8337 18.9424 14.7059 15.7028C15.0797 14.4568 16.0765 14.2076 17.0733 13.7092C18.5685 12.9616 19.9391 11.7156 20.8113 10.2204C22.0573 8.10225 22.1819 5.85946 22.1819 3.49207" stroke="white" stroke-width="2" stroke-miterlimit="10" stroke-linecap="round" stroke-linejoin="round"/>
<path d="M3.49194 3.49207C3.49194 5.85946 3.61654 8.10225 4.86254 10.2204C5.73474 11.7156 7.10533 12.9616 8.60052 13.7092C9.84652 14.3322 10.9679 14.8306 10.9679 16.3258C11.0925 17.3226 10.7187 18.3194 9.72192 18.8178C8.47593 19.5654 7.10533 19.9392 6.10853 21.0606C4.36414 22.805 4.11494 24.7986 4.11494 27.166" stroke="white" stroke-width="2" stroke-miterlimit="10" stroke-linecap="round" stroke-linejoin="round"/>
</svg>
