<svg width="42" height="31" viewBox="0 0 42 31" fill="none" xmlns="http://www.w3.org/2000/svg">
<path d="M3.81445 8.28052H37.709" stroke="white" stroke-width="2" stroke-miterlimit="10" stroke-linejoin="round"/>
<path d="M6.56762 4.73213C6.56762 4.97685 6.38408 5.1604 6.13935 5.1604C5.83345 5.1604 5.6499 4.97685 5.6499 4.73213C5.6499 4.4874 5.83345 4.24268 6.13935 4.24268C6.38408 4.24268 6.56762 4.42622 6.56762 4.73213Z" stroke="white" stroke-width="2" stroke-miterlimit="10"/>
<path d="M10.6667 5.22158C10.937 5.22158 11.1561 5.00244 11.1561 4.73213C11.1561 4.46181 10.937 4.24268 10.6667 4.24268C10.3964 4.24268 10.1772 4.46181 10.1772 4.73213C10.1772 5.00244 10.3964 5.22158 10.6667 5.22158Z" stroke="white" stroke-width="2" stroke-miterlimit="10"/>
<path d="M15.2553 5.22158C15.5256 5.22158 15.7448 5.00244 15.7448 4.73213C15.7448 4.46181 15.5256 4.24268 15.2553 4.24268C14.985 4.24268 14.7659 4.46181 14.7659 4.73213C14.7659 5.00244 14.985 5.22158 15.2553 5.22158Z" stroke="white" stroke-width="2" stroke-miterlimit="10"/>
<path d="M40.462 27.7975C40.462 29.0211 39.4831 30 38.2595 30H3.20253C1.9789 30 1 29.0211 1 27.7975V3.20253C1 1.9789 1.9789 1 3.20253 1H38.2595C39.4831 1 40.462 1.9789 40.462 3.20253V27.7975V27.7975Z" stroke="white" stroke-width="2" stroke-miterlimit="10"/>
<path d="M32.998 23.6984V15.8671L20.5781 12.3186L8.21948 15.8671L20.5781 19.9663L32.5697 16.0507" stroke="white" stroke-width="2" stroke-miterlimit="10" stroke-linecap="round" stroke-linejoin="round"/>
<path d="M13.9094 20.5169V23.6371C15.439 25.1055 17.8862 26.0844 20.5782 26.0844C23.2702 26.0844 25.7174 25.1667 27.247 23.6371V17.9473" stroke="white" stroke-width="2" stroke-miterlimit="10" stroke-linejoin="round"/>
</svg>
