<svg width="37" height="37" viewBox="0 0 37 37" fill="none" xmlns="http://www.w3.org/2000/svg">
<path d="M6.32607 26.8696C5.10867 26.8696 4.04346 25.8044 4.04346 24.587V15.4566C4.04346 14.2392 5.10867 13.174 6.32607 13.174C7.54346 13.174 8.60867 14.2392 8.60867 15.4566V24.587C8.60867 25.8044 7.54346 26.8696 6.32607 26.8696Z" stroke="white" stroke-width="2" stroke-miterlimit="10" stroke-linecap="round" stroke-linejoin="round"/>
<path d="M4.04348 23.6739C2.36957 23.3695 1 21.8478 1 20.0217C1 18.1956 2.36957 16.6739 4.04348 16.3695" stroke="white" stroke-width="2" stroke-miterlimit="10" stroke-linecap="round" stroke-linejoin="round"/>
<path d="M30.674 13.174C31.8914 13.174 32.9566 14.2392 32.9566 15.4566V24.587C32.9566 25.8044 31.8914 26.8696 30.674 26.8696C29.4566 26.8696 28.3914 25.8044 28.3914 24.587V15.4566C28.3914 14.2392 29.4566 13.174 30.674 13.174Z" stroke="white" stroke-width="2" stroke-miterlimit="10" stroke-linecap="round" stroke-linejoin="round"/>
<path d="M32.9565 16.3695C34.6305 16.6739 36 18.1956 36 20.0217C36 21.8478 34.6305 23.3695 32.9565 23.6739" stroke="white" stroke-width="2" stroke-miterlimit="10" stroke-linecap="round" stroke-linejoin="round"/>
<path d="M19.2608 36H14.6956C13.7825 36 13.1738 35.3913 13.1738 34.4783C13.1738 33.5652 13.7825 32.9565 14.6956 32.9565H19.2608C20.1738 32.9565 20.7825 33.5652 20.7825 34.4783C20.7825 35.3913 20.1738 36 19.2608 36Z" stroke="white" stroke-width="2" stroke-miterlimit="10" stroke-linecap="round" stroke-linejoin="round"/>
<path d="M31.4349 26.8696C31.4349 32.9566 28.3914 34.4783 20.7827 34.4783" stroke="white" stroke-width="2" stroke-miterlimit="10" stroke-linecap="round" stroke-linejoin="round"/>
<path d="M7.08691 13.1739V12.413C7.08691 6.17391 12.2608 1 18.5 1C24.7391 1 29.913 6.17391 29.913 12.413V13.1739" stroke="white" stroke-width="2" stroke-miterlimit="10" stroke-linecap="round" stroke-linejoin="round"/>
</svg>
