<svg width="33" height="33" viewBox="0 0 33 33" fill="none" xmlns="http://www.w3.org/2000/svg">
<path d="M16.0688 17.1474L22.7068 10.5094" stroke="white" stroke-width="2" stroke-miterlimit="10" stroke-linecap="round"/>
<path d="M31.9997 5.19897L26.6893 10.5094H22.7065V6.52657L28.0169 1.21619V5.19897H31.9997Z" stroke="white" stroke-width="2" stroke-miterlimit="10" stroke-linecap="round" stroke-linejoin="round"/>
<path d="M30.6722 17.1474C30.6722 25.2457 24.167 31.7509 16.0686 31.7509C7.97031 31.7509 1.46509 25.2457 1.46509 17.1474C1.46509 9.04904 7.97031 2.54382 16.0686 2.54382" stroke="white" stroke-width="2" stroke-miterlimit="10" stroke-linecap="round" stroke-linejoin="round"/>
<path d="M29.4775 11.4387C30.2741 13.1645 30.6723 15.1559 30.6723 17.1473C30.6723 19.1387 30.2741 21.1301 29.4775 22.856C28.6809 24.5819 27.6189 26.175 26.2913 27.5026C24.9637 28.8302 23.3706 29.8922 21.6447 30.6888C19.9188 31.4854 17.9274 31.8836 15.936 31.8836C13.9446 31.8836 11.9532 31.4854 10.2274 30.6888C8.50148 29.8922 6.90837 28.8302 5.58077 27.5026C4.25318 26.175 3.1911 24.5819 2.39454 22.856C1.59799 21.1301 1.19971 19.1387 1.19971 17.1473C1.19971 15.1559 1.59799 13.1645 2.39454 11.4387C3.1911 9.71279 4.25318 8.11967 5.58077 6.79208C6.90837 5.46448 8.50148 4.4024 10.2274 3.60585C11.9532 2.80929 13.9446 2.41101 15.936 2.41101C17.9274 2.41101 19.9188 2.80929 21.6447 3.60585" stroke="white" stroke-width="2" stroke-miterlimit="10" stroke-linecap="round" stroke-linejoin="round"/>
<path d="M22.8394 14.3593C23.2376 15.2886 23.3704 16.2179 23.3704 17.1472C23.3704 18.0766 23.1049 19.1386 22.8394 19.9352C22.4411 20.8645 21.91 21.6611 21.2462 22.1921C20.5824 22.8559 19.7859 23.3869 18.9893 23.7852C18.06 24.1835 17.1307 24.449 16.0686 24.449C15.0065 24.449 14.0772 24.1835 13.2807 23.918C12.3514 23.5197 11.5548 22.9887 11.0238 22.3249C10.36 21.6611 9.82892 20.8645 9.43064 20.0679C9.03236 19.1386 8.76685 18.2093 8.76685 17.1472C8.76685 16.0852 9.03236 15.1558 9.29788 14.3593C9.69616 13.43 10.2272 12.6334 10.891 12.1024C11.5548 11.4386 12.3514 10.9075 13.1479 10.5093C14.0772 10.111 15.0065 9.84546 16.0686 9.84546C17.1307 9.84546 18.06 10.111 18.8566 10.3765" stroke="white" stroke-width="2" stroke-miterlimit="10" stroke-linecap="round" stroke-linejoin="round"/>
</svg>
